<svg id="ac8f6be0-f9a0-437d-a655-54f4b36bd66c" data-name="SVGRoot" xmlns="http://www.w3.org/2000/svg" width="128" height="128" viewBox="0 0 128 128"><title>audio</title><g id="f5b151c4-697d-4d79-939d-b4a6501aff67" data-name="g851"><path id="f4809257-a23e-4b0a-86b6-97da26204657" data-name="path2" d="M83.9,45.71a5.3,5.3,0,0,0-7.5,7.5,14.49,14.49,0,0,1,0,20.4,5.25,5.25,0,0,0,0,7.5,5.31,5.31,0,0,0,7.4,0A25.08,25.08,0,0,0,83.9,45.71Z" fill="#020202"/><path id="b5aa3a73-84cb-4d8d-9a7a-9bb97229988c" data-name="path4" d="M92.3,30.21a5.3,5.3,0,0,0-7.5,7.5,36.39,36.39,0,0,1,0,51.3,5.25,5.25,0,0,0,0,7.5,5.31,5.31,0,0,0,7.4,0A46.81,46.81,0,0,0,92.3,30.21Z" fill="#020202"/><path id="b50ea435-4349-48c9-b45d-31cb254211f7" data-name="path6" d="M101.1,12.91a5.3,5.3,0,0,0-7.5,7.5,60.6,60.6,0,0,1,0,85.8,5.25,5.25,0,0,0,0,7.5,5.31,5.31,0,0,0,7.4,0,70.88,70.88,0,0,0,20.9-50.4A70.3,70.3,0,0,0,101.1,12.91Z" fill="#020202"/><path id="afd47f30-68f6-402f-b3e5-03d42a88612e" data-name="path8" d="M66.7,9.71a5,5,0,0,0-5.6.8L27.6,39.31H12.3A5.34,5.34,0,0,0,7,44.61V82a5.34,5.34,0,0,0,5.3,5.3H27.6l33.5,28.8a5.55,5.55,0,0,0,3.4,1.3,5.85,5.85,0,0,0,2.2-.5,5.26,5.26,0,0,0,3.1-4.8V14.51A5.37,5.37,0,0,0,66.7,9.71ZM17.5,49.91h6.7v26.8H17.5Z" fill="#020202"/></g></svg>