<svg id="f93dd280-05b4-46d3-aaba-9165d4bc0a1c" data-name="SVGRoot" xmlns="http://www.w3.org/2000/svg" width="128" height="128" viewBox="0 0 128 128"><title>fenceclimbing</title><g id="fd1bbfd6-1c23-4e8d-aba7-2e90010639e0" data-name="Layer_1-2-8-6"><circle id="f0a94f1f-6d7f-475a-a1c1-5c50d2804da6" data-name="circle7-9-9-3" cx="80.01" cy="10.88" r="9.6" fill="#020202"/><path id="bad6bc16-a09b-42bc-a908-4888390aaecb" data-name="path9-5-7-0" d="M72.57,20.48c2.49,3.21,6.8,4,12.87,1.86,2,.84,3.93,1.65,5.89,2.49,3.51,6.62,7.46,21.31,11,27.94,1.29,4.55-3.25,6.11-6.15,3.2-2.79-4.19-4.84-15.79-7.63-20l-1.86,1.23A58.16,58.16,0,0,1,81.1,54.74Q79.17,72.88,77.22,91c-2.37,3-5,3.21-7.76.48l.48-35.06c-1.29-1.08-2.59-2.16-3.88-3.27C60,50.47,56.93,41.76,53.14,37L48,53.53c-3.24,2.62-8.22,0-7-3.72,3.4-8,5.58-22,10.38-22.63,5-.63,11.07,9.59,15,13.14,1.19-3.67,2.37-7.35,3.56-11-7.23-1.81-14.25-5.15-21.48-7-3.06-2.11-2.79-6,2-6.36C57.9,17.35,65.11,19.13,72.57,20.48Z" fill="#020202" fill-rule="evenodd"/></g><rect id="a8ef2c59-a26b-4267-bf6b-d07699a632a0" data-name="rect1043-4" x="1.3" y="66.3" width="79" height="6.9"/><rect id="f2adebc9-98df-489e-8607-7b8202b9cf99" data-name="rect1043-7-5" x="1.3" y="108.8" width="79" height="6.9"/><rect id="b181aab2-3c68-4537-a8bd-5a2712e8ab14" data-name="rect1043-4-1" x="1.3" y="54.5" width="79" height="3.4"/><g id="b3e957fc-afe5-49dd-89ab-240b30d79334" data-name="g1169"><path id="bcec4317-8e02-4dda-84e2-da961166d51b" data-name="path1163" d="M4.1,50.2l7.7,11.2" fill="none" stroke="#000" stroke-miterlimit="5.1" stroke-width="1.27"/><path id="bc633f2a-c3d0-4bd3-a611-ff0e5f965c88" data-name="path1165" d="M13,50,3.7,61.7" fill="none" stroke="#000" stroke-miterlimit="5.1" stroke-width="1.27"/></g><g id="f9462980-5b93-48b4-abd0-644249599267" data-name="g1169-6"><path id="a1d6f575-f4ae-45d2-a377-c94736e7bb16" data-name="path1163-7" d="M49.88,50.65l7.7,11.2" fill="none" stroke="#000" stroke-miterlimit="5.1" stroke-width="1.27"/><path id="e1167170-1d7e-4882-bc57-665d42e94188" data-name="path1165-7" d="M58.78,50.45l-9.3,11.6" fill="none" stroke="#000" stroke-miterlimit="5.1" stroke-width="1.27"/></g><rect id="a39f6e1d-5428-4c4f-802a-3bf726d39c35" data-name="rect1043-4" x="48.4" y="66.3" width="79" height="6.9"/><rect id="e39916e7-8020-402d-85de-de0f2bce147e" data-name="rect1043-7-5" x="48.4" y="108.8" width="79" height="6.9"/><rect id="abccf404-283d-4d16-b6a8-5c309833ad18" data-name="rect1043-4-1" x="48.4" y="54.5" width="79" height="3.4"/><g id="afa5d88b-eb3f-473b-88d8-66db831e2e0e" data-name="g1169"><path id="f55c302b-3171-4b90-a9dd-d2bbbbc218e8" data-name="path1163" d="M25.2,50.7,33,61.9" fill="none" stroke="#000" stroke-miterlimit="5.1" stroke-width="1.27"/><path id="be0d18e8-f9c4-48c1-a204-1caa82d54902" data-name="path1165" d="M34.1,50.4,24.8,62.1" fill="none" stroke="#000" stroke-miterlimit="5.1" stroke-width="1.27"/></g><g id="eeaecde1-dd32-4895-a14f-0cb4f846abf8" data-name="g1169-6"><path id="afe9640e-3944-494a-915d-a2ff6d6b0905" data-name="path1163-7" d="M84.28,50.65,92,61.85" fill="none" stroke="#000" stroke-miterlimit="5.1" stroke-width="1.27"/><path id="bb2588e4-bf85-4044-9837-d30cac79e5f5" data-name="path1165-7" d="M93.08,50.45l-9.3,11.6" fill="none" stroke="#000" stroke-miterlimit="5.1" stroke-width="1.27"/></g><g id="b7e9a8c1-7928-4ac7-993f-3e0df62694ae" data-name="g1169-8"><path id="e8b46b5e-e79f-4658-9e1c-8c8820088640" data-name="path1163-0" d="M114.55,50.77l7.7,11.2" fill="none" stroke="#000" stroke-miterlimit="5.1" stroke-width="1.27"/><path id="f8057d93-f21b-4527-b7c0-62d5844f3865" data-name="path1165-3" d="M123.35,50.47l-9.3,11.7" fill="none" stroke="#000" stroke-miterlimit="5.1" stroke-width="1.27"/></g><polygon id="bedf31ba-d0de-4a6f-b450-bb1ea8b2769f" data-name="rect1043-4" points="12.9 67.7 117.4 110.7 115.8 113.8 11.3 70.7 12.9 67.7"/><polygon id="bb5fdb97-1e10-4293-8898-b51ee9550b2f" data-name="rect1043-4" points="117.4 70.4 12.9 113.4 11.3 110.4 115.8 67.3 117.4 70.4"/><rect id="b63b85c8-cb1c-44c7-84b6-ac0604715016" data-name="rect1043-4" x="14.6" y="45.3" width="6.9" height="79"/><rect id="b7257e24-c595-4c2a-b374-f7c2f180e4f9" data-name="rect1043-4" x="104.9" y="45.3" width="6.9" height="79"/><polyline id="ad325e2a-8b48-47ba-a3f6-acf562a3bee3" data-name="rect1043-4" points="126.2 80.3 103.4 70.9 105 67.8 126.4 76.7"/><polyline id="a280ef65-fbb0-4f16-816c-20cf3467d03c" data-name="rect1043-4" points="2.4 103.8 21.1 111.5 19.5 114.6 2.1 107.4"/><polyline id="f5fd31a6-077c-4c1f-a44d-d871b1b84716" data-name="rect1043-4" points="126.4 104.8 105 113.6 103.4 110.5 126.4 101.1"/><polyline id="b256089e-ad4b-457f-9d0e-708d1c9645ff" data-name="rect1043-4" points="2.4 75.2 19.5 68.1 21.1 71.2 2.6 78.8"/><path d="M76.1,17.6a3.14,3.14,0,0,1-.9,2.1,3.42,3.42,0,0,1-3.5.8,10.14,10.14,0,0,0,5.7,3.9,14.61,14.61,0,0,0,9.4-.6,11.68,11.68,0,0,1-3-3,5.85,5.85,0,0,1-.9-3.2Z" stroke="#000" stroke-linejoin="round" stroke-width="0.5"/></svg>