<svg id="a3d2cd33-e4f2-49ff-832a-b95f8d6a61c2" data-name="SVGRoot" xmlns="http://www.w3.org/2000/svg" width="128" height="128" viewBox="0 0 128 128"><title>fenceunknown</title><rect id="b6dbf49e-9d5c-49be-930a-1d0d5b9c86cd" data-name="rect1043-4" x="0.9" y="65" width="79" height="6.9"/><rect id="b26bcce5-0ae8-4839-9d06-5977c7a23b1e" data-name="rect1043-7-5" x="0.9" y="107.4" width="79" height="6.9"/><rect id="b3ac0916-3de9-4b6e-a052-88a645bf62d8" data-name="rect1043-4-1" x="0.9" y="53.2" width="79" height="3.4"/><g id="ae8d0850-cce5-40b2-ba81-44eef4e5f605" data-name="g1169"><path id="be3b1805-f8f9-40de-adc9-2dedff7fc3ec" data-name="path1163" d="M3.8,48.9l7.7,11.2" fill="none" stroke="#000" stroke-miterlimit="5.1" stroke-width="1.27"/><path id="fd126e64-0c48-44cb-b09e-3e30f247ea42" data-name="path1165" d="M12.6,48.6,3.3,60.4" fill="none" stroke="#000" stroke-miterlimit="5.1" stroke-width="1.27"/></g><g id="b0e6b503-6441-4894-a92a-c59cdabe999a" data-name="g1169-6"><path id="aa4a5995-656b-4ce4-b90c-d355fc062ae5" data-name="path1163-7" d="M47.58,49.35l7.7,11.2" fill="none" stroke="#000" stroke-miterlimit="5.1" stroke-width="1.27"/><path id="a4fb0b74-7044-42c5-bf43-e4efabdc4b01" data-name="path1165-7" d="M56.38,49.15l-9.3,11.6" fill="none" stroke="#000" stroke-miterlimit="5.1" stroke-width="1.27"/></g><g id="b31baee2-4ada-4f11-b702-de88421f1290" data-name="g1169-8"><path id="fdfdb74b-ea16-4ac7-bc59-e92bfe20587b" data-name="path1163-0" d="M70.25,49.47,78,60.67" fill="none" stroke="#000" stroke-miterlimit="5.1" stroke-width="1.27"/><path id="e0642318-23f3-4fc6-89ca-2ea33c86fb31" data-name="path1165-3" d="M79.15,49.17l-9.3,11.6" fill="none" stroke="#000" stroke-miterlimit="5.1" stroke-width="1.27"/></g><rect id="a2a65d8a-dc46-46b6-9ff7-0964142aded8" data-name="rect1043-4" x="48.1" y="65" width="79" height="6.9"/><rect id="bb970f34-53a4-4445-84b1-8e43aeb1823c" data-name="rect1043-7-5" x="48.1" y="107.5" width="79" height="6.9"/><rect id="fbd31f62-3ea9-44dc-96a9-2f5bb554bfaf" data-name="rect1043-4-1" x="48" y="53.2" width="79" height="3.4"/><g id="faf02b1e-e898-4e40-90c8-1704cb08b560" data-name="g1169"><path id="b4ee0540-6303-4969-9466-0643b8b8985d" data-name="path1163" d="M24.9,49.4l7.7,11.2" fill="none" stroke="#000" stroke-miterlimit="5.1" stroke-width="1.27"/><path id="a4d3d4c7-9d8b-4d88-b53d-e1590ffc4514" data-name="path1165" d="M33.8,49.1,24.5,60.8" fill="none" stroke="#000" stroke-miterlimit="5.1" stroke-width="1.27"/></g><g id="b73ece9b-e2c3-4f15-9afa-d09f97f22f50" data-name="g1169-6"><path id="e2c20b66-8e36-43c0-9404-10afaded710f" data-name="path1163-7" d="M92.88,49.35l7.7,11.2" fill="none" stroke="#000" stroke-miterlimit="5.1" stroke-width="1.27"/><path id="e073bda8-572b-45b7-bc02-dd61b79297b1" data-name="path1165-7" d="M101.78,49.15l-9.3,11.6" fill="none" stroke="#000" stroke-miterlimit="5.1" stroke-width="1.27"/></g><g id="ac1e0ea0-af7e-4303-83fb-4e401237ef72" data-name="g1169-8"><path id="a7925bb6-a16b-46cd-82a8-7b67a79d708f" data-name="path1163-0" d="M114.15,49.47l7.7,11.2" fill="none" stroke="#000" stroke-miterlimit="5.1" stroke-width="1.27"/><path id="aa9b63cd-5db8-40d8-b7aa-03f1f92babba" data-name="path1165-3" d="M123.05,49.17l-9.3,11.6" fill="none" stroke="#000" stroke-miterlimit="5.1" stroke-width="1.27"/></g><polygon id="f94a3647-ad5d-49d8-b2e0-803ef080ecea" data-name="rect1043-4" points="12.5 66.3 117.1 109.4 115.5 112.5 10.9 69.4 12.5 66.3"/><polygon id="fc6dbab1-c3d0-47ab-91ee-df5739a81802" data-name="rect1043-4" points="117.1 69 12.5 112.1 10.9 109 115.5 66 117.1 69"/><rect id="acabace0-eea2-4c72-b35c-c3de08772b07" data-name="rect1043-4" x="14.3" y="43.9" width="6.9" height="79"/><rect id="a59c3213-32d4-4f37-8ac7-5cbaedd1b963" data-name="rect1043-4" x="104.6" y="43.9" width="6.9" height="79"/><polyline id="b43fcbb1-ad3f-401a-bb14-4d7123209494" data-name="rect1043-4" points="125.8 79 103 69.6 104.6 66.5 126.1 75.3"/><polyline id="aec1b294-433c-4c10-bbef-bf99dd4627fb" data-name="rect1043-4" points="2 102.5 20.7 110.2 19.1 113.3 1.7 106.1"/><polyline id="a8bba89a-448d-4d1f-a5cf-f7fd181f3518" data-name="rect1043-4" points="126 103.5 104.6 112.3 103 109.2 126 99.7"/><polyline id="bfec3258-3e6a-416d-8bde-ee31ef60e156" data-name="rect1043-4" points="2 73.9 19.2 66.8 20.8 69.9 2.2 77.5"/><path id="ebbba82f-bb7b-4c6c-80f9-3d8726bca1bf" data-name="path884" d="M86.7,25.4l-2-13.1c-.2-2.6-.4-4.4-.4-5.5a4.26,4.26,0,0,1,1.5-3.5,9.5,9.5,0,0,1,5-1.3c2,0,4.2.6,4.9,1.6a8.82,8.82,0,0,1,1.1,4.7,24,24,0,0,1-.3,3.7L94.2,25.5a8.53,8.53,0,0,1-1.1,3.7,3.06,3.06,0,0,1-2.8,1.3,2.79,2.79,0,0,1-2.7-1.3A16.29,16.29,0,0,1,86.7,25.4Z"/><circle cx="90.6" cy="40.3" r="5.4"/></svg>