<svg id="fd0ac0a0-71a9-49ee-a2de-9ce0e5b5abf5" data-name="SVGRoot" xmlns="http://www.w3.org/2000/svg" width="128" height="128" viewBox="0 0 128 128"><title>fencecutting</title><g id="adf1b2a5-1985-466b-809d-7625e6d99ec4" data-name="g1251"><path id="ab90dae3-6dce-4acc-9186-eb432453e08e" data-name="path1221" d="M59.07,56.8c-.67-6.65,1.74-13.3,8.09-16.27a15.52,15.52,0,0,0,2.61,10.56C66.5,52.87,62.34,55,59.07,56.8Z"/><circle id="a25d874e-23b3-4b24-93b3-1b1508164b04" data-name="path1223" cx="79.41" cy="43.11" r="6.4" fill="none" stroke="#000" stroke-linecap="round" stroke-miterlimit="10" stroke-width="2.22"/><path id="faeb6d61-dd46-46af-9d89-777c266758c2" data-name="path1227" d="M65.91,63.45c1.8-4.1,4.74-9.09,6.54-13.22l11.2,2C80.6,58.77,76.67,64.45,65.91,63.45Z"/><path id="eb57d90d-5a44-4f80-9ecd-fc95978e286b" data-name="path1229" d="M78.3,30.72l8.07,2.14c0-15.19,7.26-19.32,14.71-24.11,4.19-1.78,1.75-8-2.33-7.35C85.23,4.62,76.67,20.64,78.3,30.72Z"/><path id="b7a1c0cc-da02-4f0d-82a9-edf7c7d3d8db" data-name="path1229-4" d="M92.05,44.11,89.91,36c15.16,0,19.32-7.26,24.11-14.71,1.78-4.16,8-1.72,7.35,2.33C118.15,37.21,102.11,45.77,92.05,44.11Z"/></g><rect id="b992fe4f-3bbd-44ff-9089-25d45f312c76" data-name="rect1043-4" x="0.7" y="67.5" width="79" height="6.9"/><rect id="be2be488-e3fd-428a-903d-641469cd19ec" data-name="rect1043-7-5" x="0.7" y="110" width="79" height="6.9"/><polygon id="b8f3101d-9638-4697-b156-7b21fdc0663e" data-name="rect1043-4-1" points="0.7 55.8 56.2 55.8 56.2 59.2 0.7 59.1 0.7 55.8"/><g id="b81177b6-d8c7-4bdf-9cd0-38d6f24b3325" data-name="g1169"><path id="a04e7e7a-306c-48f0-86fe-37415e7b7d2c" data-name="path1163" d="M3.6,51.5l7.7,11.2" fill="none" stroke="#000" stroke-miterlimit="5.1" stroke-width="1.27"/><path id="ad4517e9-b861-49e6-b337-41da661e1979" data-name="path1165" d="M12.5,51.2,3.1,63" fill="none" stroke="#000" stroke-miterlimit="5.1" stroke-width="1.27"/></g><g id="f79db7ee-285b-4c9f-9c99-aa1b5c032d38" data-name="g1169-6"><path id="ad89bf07-4dfb-46cc-b0f2-63029e1550a6" data-name="path1163-7" d="M47.38,52l7.7,11.2" fill="none" stroke="#000" stroke-miterlimit="5.1" stroke-width="1.27"/><path id="f6be70e8-2e28-4a2d-9d79-e721ac096242" data-name="path1165-7" d="M56.18,51.75l-9.3,11.6" fill="none" stroke="#000" stroke-miterlimit="5.1" stroke-width="1.27"/></g><rect id="be5e451b-7bab-45ff-bfe7-595d8ac29372" data-name="rect1043-4" x="47.9" y="67.6" width="79" height="6.9"/><rect id="a0cddeb9-d151-4e5f-aeaa-f3708d0409e6" data-name="rect1043-7-5" x="47.9" y="110" width="79" height="6.9"/><polygon id="b706a5e5-be99-46e3-85b7-5ea1164fb818" data-name="rect1043-4-1" points="89.9 55.4 126.9 55.8 126.9 59.1 89.9 58.8 89.9 55.4"/><g id="acc32ec1-6371-4855-9b0c-f97f59ffd8f8" data-name="g1169"><path id="f153c7b1-f7a7-4fb4-a3a4-fd8faf1f13ba" data-name="path1163" d="M24.7,52l7.7,11.2" fill="none" stroke="#000" stroke-miterlimit="5.1" stroke-width="1.27"/><path id="b7ab1fef-e840-42a2-942f-e414de0c5cf8" data-name="path1165" d="M33.6,51.7,24.3,63.4" fill="none" stroke="#000" stroke-miterlimit="5.1" stroke-width="1.27"/></g><g id="b7a32277-3c5e-45e9-b746-dddc2b1f61ba" data-name="g1169-6"><path id="ecd5caba-7d78-4c74-91ac-7fbf61d17c21" data-name="path1163-7" d="M92.68,52l7.7,11.2" fill="none" stroke="#000" stroke-miterlimit="5.1" stroke-width="1.27"/><path id="be3aa641-37fe-4583-93f7-1e876199c6ea" data-name="path1165-7" d="M101.58,51.75l-9.3,11.6" fill="none" stroke="#000" stroke-miterlimit="5.1" stroke-width="1.27"/></g><g id="b59913c0-32fa-4ac4-a1a8-335b84ccceba" data-name="g1169-8"><path id="bfa38a8a-d3db-4481-ad3f-c3c2db59beed" data-name="path1163-0" d="M114,52l7.7,11.2" fill="none" stroke="#000" stroke-miterlimit="5.1" stroke-width="1.27"/><path id="ffed42bf-ecc8-4bc0-81fa-44b871b65fec" data-name="path1165-3" d="M122.85,51.77l-9.3,11.6" fill="none" stroke="#000" stroke-miterlimit="5.1" stroke-width="1.27"/></g><polygon id="abaa8983-5b83-414c-b6fc-a090b612ab2b" data-name="rect1043-4" points="12.3 68.9 116.9 112 115.3 115 10.7 72 12.3 68.9"/><polygon id="b97f034c-02dc-4fc8-bcab-6f8c54f410eb" data-name="rect1043-4" points="116.9 71.6 12.3 114.7 10.7 111.6 115.3 68.6 116.9 71.6"/><rect id="f386c58f-5cdf-4210-a98e-deaca57fcf6e" data-name="rect1043-4" x="14.1" y="46.5" width="6.9" height="79"/><rect id="a4cd0f03-a2fb-48aa-bbfe-b1b18c31c814" data-name="rect1043-4" x="104.4" y="46.5" width="6.9" height="79"/><polyline id="e53cdc02-6420-475c-a2e1-13f219347cc7" data-name="rect1043-4" points="125.6 81.5 102.8 72.2 104.4 69.1 125.9 77.9"/><polyline id="fcbc9804-5c30-4557-9266-2edd509303c6" data-name="rect1043-4" points="1.8 105.1 20.5 112.8 19 115.9 1.5 108.7"/><polyline id="b77bc78d-d321-4436-88b9-ae9422f8745a" data-name="rect1043-4" points="125.8 106.1 104.4 114.9 102.8 111.8 125.8 102.3"/><polyline id="b4dc5f5f-756b-4def-8e23-f10a2dd2b97b" data-name="rect1043-4" points="1.8 76.4 19 69.4 20.6 72.5 2 80.1"/></svg>