<svg id="b4281e65-0364-49a7-b0f7-0eaff2f1e408" data-name="SVGRoot" xmlns="http://www.w3.org/2000/svg" width="128" height="128" viewBox="0 0 128 128"><title>fibrebreak</title><path d="M6.3,2s-1,14.4-2.1,30.6c-1.3,19.1,6.7,33,26.4,33.6l15.5,1.7a2.21,2.21,0,0,0,1.9-.6,3.25,3.25,0,0,0,1-1.8l.3-2.7,10.7.9c1.4.2,3.7-1.5,3.8-3.9a4.08,4.08,0,0,0-3.3-4.4l-10.8-.9.3-2.7a2.7,2.7,0,0,0-2.3-3L32.2,47.1c-7.3-1.7-8.3-5.7-8.5-12.8.8-7.4,3-30.6,3-30.6Z"/><path d="M40.2,19.7l13,22" stroke="red" stroke-linecap="round" stroke-width="10.83"/><path d="M77.4,84.6l13,22" stroke="red" stroke-linecap="round" stroke-width="10.83"/><path d="M46.3,78.7l-21,15.5" stroke="red" stroke-linecap="round" stroke-width="10.83"/><path d="M60.9,87.8l-4.5,23" stroke="red" stroke-linecap="round" stroke-width="10.83"/><path d="M75.2,18.5l-4.5,23" stroke="red" stroke-linecap="round" stroke-width="10.83"/><path d="M109.1,33l-21,15.5" stroke="red" stroke-linecap="round" stroke-width="10.83"/><path d="M124.4,125s1-14.4,2.1-30.6c1.3-19.1-6.7-33-26.4-33.6L84.6,59.1a2.21,2.21,0,0,0-1.9.6,2.94,2.94,0,0,0-1,1.8l-.3,2.7-10.8-.9c-1.4-.2-3.7,1.5-3.8,3.9a4.08,4.08,0,0,0,3.3,4.4l10.8.9-.3,2.7a2.7,2.7,0,0,0,2.3,3l15.5,1.7c7.3,1.7,8.3,5.7,8.5,12.8-.8,7.4-3,30.6-3,30.6Z"/></svg>