<svg id="bbba653b-a878-4ff5-a445-cad194403116" data-name="SVGRoot" xmlns="http://www.w3.org/2000/svg" width="128" height="128" viewBox="0 0 128 128"><title>gasleak</title><g id="ac4c7974-11f6-449b-84fe-13a6ed96e765" data-name="g864"><path id="b635f779-e749-4216-ba52-1e80d443850d" data-name="path4" d="M30.4,73.8A24.8,24.8,0,1,1,5.6,98.6,24.8,24.8,0,0,1,30.4,73.8Z" fill="none" stroke="#000" stroke-width="6.56"/><g id="e3f77940-0d1d-4f70-8435-492f7d4f1eb1" data-name="g10"><path id="fbe4482a-0733-4bc7-8221-028e7d734368" data-name="path6" d="M27.7,67.1c10.7-5.7,21.2-10,31.9-15.6,18.8.7,32,18.4,27.5,34.3-9.4,8.5-17.5,16.9-27,25.4C68.7,86.3,50.5,65.2,27.7,67.1Z" fill-rule="evenodd"/><path id="a2c65685-5c5c-48f6-a8e0-85fb41b33aa4" data-name="path8" d="M63.4,49.9l39.7-18.5c13.1,3.3,20,17.5,18.6,23.7L89.6,82.5C93.6,64.2,79.4,51.3,63.4,49.9Z" fill-rule="evenodd"/></g></g><path id="ad729d91-1cca-4f9f-880e-80b43b75078e" data-name="path12" d="M37.1,62.1,51.3,62l5.6,11.9,16.4,6.9L61.7,66.4,57.9,54.1l-9.5-3.9Z" fill="#fff"/><path id="eac92e43-972f-43b2-ba25-31b7d2ae76eb" data-name="path14" d="M20.51,29.61c-15.24,2.44,1.77,22.86,14.26,8.82" fill="none" stroke="#000" stroke-width="2"/><path id="e1604574-60e7-4634-a8ee-7dc89fef6d40" data-name="path16" d="M23.84,12.87c-9.16-2.69-15.89,10-1.3,15" fill="none" stroke="#000" stroke-width="2"/><path id="a61f4609-bb4d-4886-88f2-4d14644f2a9e" data-name="path18" d="M34.37,21.37c.66-7.51-14.91-1.31-6.4,8.89" fill="none" stroke="#000" stroke-width="2"/><path id="bb274193-38d9-4ac9-8b98-8c7e7a27a447" data-name="path20" d="M23.51,16.63C22.07-10,56.35,6.28,47.59,20.64" fill="none" stroke="#000" stroke-width="2"/><path id="a71ef0de-cfc3-4a79-9bc8-b698c5d922b2" data-name="path22" d="M51.64,17.22c11.51-2.77,15.64,14.62.4,17.06" fill="none" stroke="#000" stroke-width="2"/><path id="b08095db-8e33-48e6-bffe-eb81627be6e1" data-name="path24" d="M48.64,30.19C48,37.7,45.3,46.93,50.41,53.05" fill="none" stroke="#000" stroke-width="2"/><path id="e6315c41-7a60-4891-9178-2f74ac354d70" data-name="path26" d="M30.72,41.86c1.37,5.79,8.5,10.21,17.33,16.66" fill="none" stroke="#000" stroke-width="2"/><path id="b5cd6e25-5b0b-4bd3-a9d4-50792ffdb4e3" data-name="path28" d="M37.12,33a16.39,16.39,0,0,0,.45,6.86,20.55,20.55,0,0,0,4,6.78" fill="none" stroke="#000" stroke-width="2"/></svg>