<svg id="af287329-c46e-42a4-99ef-6defb4f32087" data-name="svg4" xmlns="http://www.w3.org/2000/svg" width="130.8" height="130.1" viewBox="0 0 130.8 130.1"><title>genericalarm</title><path id="f9877836-23bc-4027-b07e-17e8cea8055a" data-name="path884" d="M58.1,73.1,54.3,48.4c-.4-4.8-.7-8.3-.7-10.3a7.79,7.79,0,0,1,2.9-6.6c2-1.6,6.2-2.4,9.4-2.4,3.8,0,7.9,1.1,9.2,3s2,5,2,8.8a40.79,40.79,0,0,1-.5,6.9L72.2,73.2a15.72,15.72,0,0,1-2,7A5.83,5.83,0,0,1,65,82.6c-2.4,0-4.1-.8-5-2.4A21.43,21.43,0,0,1,58.1,73.1Z"/><circle cx="65.4" cy="101" r="10.2"/></svg>