<svg id="eac4e721-e644-42af-87dc-12f0eb4ec8d7" data-name="SVGRoot" xmlns="http://www.w3.org/2000/svg" width="128" height="128" viewBox="0 0 128 128"><title>heavyequipment</title><polygon points="19.8 35.4 25.4 41.1 46.3 41.5 56.1 74.7 82 75.2 120.9 57.2 116.4 46.3 64.6 46.9 53.4 35.2 19.8 35.4"/><line x1="60.8" y1="55.1" x2="108.3" y2="55" fill="none" stroke="#fff" stroke-linecap="round" stroke-miterlimit="10" stroke-width="4"/><line x1="60.7" y1="64" x2="91.8" y2="63.8" fill="none" stroke="#fff" stroke-linecap="round" stroke-miterlimit="10" stroke-width="4"/><path d="M20.6,83.1H10.3V61.7l11.9-5.9,4-12.4,18.5.2,10.4,35-6.8.2C45.6,68.5,23.8,66.9,20.6,83.1Z"/><path d="M18.8,88.7C18.8,62.8,48,67,50,79.1" fill="none" stroke="#fff" stroke-miterlimit="10" stroke-width="5"/><path d="M18,88.7H8.5a.79.79,0,0,1-.8-.8V84a.79.79,0,0,1,.8-.8H18a.79.79,0,0,1,.8.8v4A.71.71,0,0,1,18,88.7Z" stroke="#fff" stroke-miterlimit="10"/><path d="M119.1,88.6h-7a.79.79,0,0,1-.8-.8V83.9a.79.79,0,0,1,.8-.8h7a.79.79,0,0,1,.8.8v3.9A.74.74,0,0,1,119.1,88.6Z" stroke="#fff" stroke-miterlimit="10"/><path d="M86.8,86.3H47.4a.79.79,0,0,1-.8-.8V80.2a.79.79,0,0,1,.8-.8H86.9a.79.79,0,0,1,.8.8v5.3A1,1,0,0,1,86.8,86.3Z" stroke="#fff" stroke-miterlimit="10"/><circle cx="35.6" cy="85.7" r="13.3" fill="#fff" stroke="#000" stroke-miterlimit="10" stroke-width="3"/><circle cx="35.6" cy="85.7" r="7.4" fill="#fff" stroke="#000" stroke-miterlimit="10"/><circle cx="35.6" cy="85.7" r="2.1" stroke="#000" stroke-miterlimit="10"/><path d="M116.6,84.8h-7a.79.79,0,0,1-.8-.8V80.1a.79.79,0,0,1,.8-.8h7a.79.79,0,0,1,.8.8V84C117.3,84.4,117,84.8,116.6,84.8Z" stroke="#fff" stroke-miterlimit="10"/><circle cx="96.8" cy="86.5" r="13.3" fill="#fff" stroke="#000" stroke-miterlimit="10" stroke-width="3"/><circle cx="96.8" cy="86.5" r="7.4" fill="#fff" stroke="#000" stroke-miterlimit="10"/><circle cx="96.8" cy="86.5" r="2.1" stroke="#000" stroke-miterlimit="10"/><line x1="103.8" y1="63.8" x2="112.2" y2="80.4" fill="none" stroke="#000" stroke-miterlimit="10"/><path d="M25.6,45.3h5.6A1.34,1.34,0,0,1,32.5,47l-1.8,6.2a1.38,1.38,0,0,1-1.3,1H22.7Z" fill="#fff" stroke="#fff" stroke-miterlimit="10"/></svg>