<svg id="fdaefa33-2632-48b1-90fb-3d66cdd11617" data-name="SVGRoot" xmlns="http://www.w3.org/2000/svg" width="128" height="128" viewBox="0 0 128 128"><title>lidlift</title><path d="M127.6,103.6V110H0v-6.4H12.1l.1,4.1,106.1-.2-.2-3.9Zm-12.5.4,8.2-9.1L52.7,28l-8.3,9Z"/><path d="M77.9,98.33V92.57A18.27,18.27,0,0,1,60.6,80.19h4.58L57.43,69.1,49.66,80.18h5A24.09,24.09,0,0,0,68.76,96.5a23.82,23.82,0,0,0,9.14,1.83Z"/><path d="M1.9,21,9.7,2.7,28.8,11l25.1,4A4,4,0,0,1,57,19.1,4.15,4.15,0,0,1,53.9,23c-4-.1-7.9-1.1-11.9-.1-1.5.1-2.1.1-3.4,2-1.6,2.2-1.9,2.9-1.4,8.4,1.2,4.4,2.1,6.9,5.9,11.1a39.35,39.35,0,0,0,6.8,6.8,44,44,0,0,0,8.2,5,3.3,3.3,0,0,1,1.6,3.4,3.47,3.47,0,0,1-3.5,2.8,44,44,0,0,1-4.5-1.7,23,23,0,0,1-4.6-2.9A45.8,45.8,0,0,1,41.3,53a55,55,0,0,1-4.2-4.6,31.71,31.71,0,0,0,1.8,3.8,23.12,23.12,0,0,0,2.6,4c2.4,3.3,4.8,6.5,7.3,9.8a3.58,3.58,0,0,1-4.2,5.3,42.3,42.3,0,0,1-4.2-4.8c-1.3-1.6-2.3-3.3-3.3-4.8A29.19,29.19,0,0,1,35,58.9a43.48,43.48,0,0,1-3.4-5.5,20.69,20.69,0,0,0,.4,2.2c.4,2,1,3.8,1.5,5.5a24.73,24.73,0,0,1,1.6,4.2,17.67,17.67,0,0,1,.5,2.9A4.05,4.05,0,0,1,33.3,71a3.45,3.45,0,0,1-3.7-1c-.5-1.4-1-2.9-1.6-4.3-.9-2.9-1.9-5.7-2.6-8.4a81.36,81.36,0,0,0-3-8.1,105.36,105.36,0,0,0-5.3-11.1A39.75,39.75,0,0,0,9.6,27.4,28.31,28.31,0,0,0,1.9,21Z"/></svg>