<svg id="b7ccb00c-7408-4d84-8ae0-bf91801769ee" data-name="SVGRoot" xmlns="http://www.w3.org/2000/svg" width="121" height="122.9" viewBox="0 0 121 122.9"><title>manualdiggingmattock</title><path d="M17,18.79,13.12,48.48c2.45-2.7,4.21-5,7-8.1l2.81-14.65,14-1.92C26.8,31.13,9.61,52.33,8.21,55.41c-1.76,4.24,1.4,24.29.35,32.77L.14,118.63c.7,3.47,3.86,3.86,6,2.31L18.73,91.26c2.46-5.78,1.4-17,2.81-24.28C25.75,74.3,33.47,82.4,38.38,88.56,34.87,97.43,30,105.91,26.8,114.78c-1.05,4.24,3.16,7.32,7,4.24,4.56-10.41,14-28.91,14-30.84L32.06,59.27l20.35-18.5L63.63,67.36l7,1.16L58.72,33.06l-2.8-5.79c-2.81-3.46-5.62-6.93-5.62-11.56l-1.75-3.85Z" fill-rule="evenodd"/><path d="M64,.68C70.3.68,75.56,6.46,75.56,13.4S70.3,26.12,64,26.12,52.41,20.34,52.41,13.4,57.67.68,64,.68Z" fill-rule="evenodd"/><path d="M94.5,78.93l-4.21,22-7-5.4,6.31-13.87-80-34.31a2.3,2.3,0,0,1,.7-3.47L91,76.23" fill-rule="evenodd"/><path d="M118,122.49l-68.76.38,5.26-6.17,9.83,1.16,3.5-5.4L86.09,114l6.31-5,12.28,1.16,5.26,7.71,7.72,2.31Z" fill-rule="evenodd"/></svg>