<svg id="ba9b0702-dec2-4129-bafc-16a93e6d38bf" data-name="SVGRoot" xmlns="http://www.w3.org/2000/svg" width="121" height="122.9" viewBox="0 0 121 122.9"><title>manualdiggingshovel</title><path d="M17,18.79,13.12,49.63a79.09,79.09,0,0,1,7.72-7.71L24,28.82H35.57C25.4,36.14,10,52.72,8.21,55.41c-1.76,4.24,1.4,24.29.35,32.77L.14,118.63c.7,3.47,3.86,3.86,6,2.31L18.73,91.26c2.46-5.78,1.4-17,2.81-24.28C25.75,74.3,33.47,82.4,38.38,88.56,34.87,97.43,30,105.91,26.8,114.78c-1.05,4.24,3.16,7.32,7,4.24,4.56-10.41,14-28.91,14-30.84L32.06,59.27l18.24-12L48.9,73.15l4.56,3.47,8.07-37-2.81-5.78c-2.8-3.47-5.61-6.94-5.61-11.57l-1.75-3.85Z" fill-rule="evenodd"/><path d="M66.09,5.3C72.4,5.3,77.67,11.09,77.67,18S72.4,30.74,66.09,30.74,54.51,25,54.51,18A11.85,11.85,0,0,1,66.09,5.3Z" fill-rule="evenodd"/><path d="M67.49,97.43,4.35,37.68a2.27,2.27,0,0,1,2.1-3.08l64.9,58.2,3.86-6.16,14,12.72.35,9.25-9.12,3.47L64.34,101.67Z" fill-rule="evenodd"/><path d="M118,122.49l-68.76.38,5.26-6.17,9.83,1.16,3.5-5.4L86.09,114l6.31-5,12.28,1.16,5.26,7.71,7.72,2.31Z" fill-rule="evenodd"/></svg>