<svg id="b62c5107-335e-4f08-a983-77eb65b84c8a" data-name="SVGRoot" xmlns="http://www.w3.org/2000/svg" width="128" height="128" viewBox="0 0 128 128"><title>mechanizeddigging</title><path d="M111.3,103.5H62a11,11,0,0,1-11-11h0a11,11,0,0,1,11-11h49.3a11,11,0,0,1,11,11h0A11,11,0,0,1,111.3,103.5Z" fill="#fff" stroke="#000" stroke-miterlimit="10" stroke-width="5"/><path d="M14.7,47.2,32.4,23.3l2.4,1.5,21,23.4,40.9-1.8,20.2.4c2.4.3,5,2.8,5.2,5.2L122,70c0,3.3-2.2,6.4-5.5,6.6l-55.3.2a6.71,6.71,0,0,1-5.8-3.2l-21.5-35L19.8,51.4Z"/><path d="M10.2,60.7,5.4,77.3a9.37,9.37,0,0,0,1.4,7.3,10.15,10.15,0,0,0,5.6,3.7c9.9-.1,20.8.7,30.7.6L18.6,60.5Z"/><circle cx="14.8" cy="52.7" r="4.1" fill="#fff" stroke="#000" stroke-miterlimit="10" stroke-width="3"/><circle cx="61.9" cy="92.3" r="6.6"/><circle cx="78.1" cy="92.3" r="6.6"/><circle cx="94.3" cy="92.3" r="6.6"/><circle cx="110.6" cy="92.3" r="6.6"/><line x1="105.9" y1="40.3" x2="105.9" y2="49.5" fill="none" stroke="#000" stroke-miterlimit="10" stroke-width="5"/><circle cx="34" cy="29.9" r="5.5" fill="#fffeff" stroke="#000" stroke-miterlimit="10" stroke-width="3"/><polygon points="58.1 41.6 74.1 23.8 94.4 23.8 95.2 51.7 86.8 59.9 57.8 60.5 58.1 41.6" fill="#fffdfd" stroke="#000" stroke-miterlimit="10" stroke-width="5"/></svg>