<svg id="fd90efea-2fa1-45b7-a28f-eaee45ae8f70" data-name="SVGRoot" xmlns="http://www.w3.org/2000/svg" width="128" height="128" viewBox="0 0 128 128"><title>trainfront</title><path d="M38.53,83.31l3.1,2.18-30.4,39.93-3.88-.64Z" stroke="#000" stroke-width="0.2"/><path d="M88,83.14l-3.1,2.18L113,124.67l3.88-.64Z" stroke="#000" stroke-width="0.2"/><path d="M36.78,88.85H87.87l3.82,5.81H34Z"/><path d="M30.7,99H95.34l4.77,6.33-77-.18Z" stroke="#000" stroke-width="1.17"/><path d="M19.57,112h84.5l6.33,7.89H14.94Z"/><path d="M44.93,4.59H81.75c10-.24,14.48,7.85,14.48,14.24V80.74c.39,3.36-1.32,5.35-4.39,5.52H83.1c-1.81-.2-2.78-1.44-3.37-3.15l-.06-4.87c.09-2.15-1.42-3-3.32-3.45l-25.2-.25c-1.53.63-3.43.51-3.7,3.63-.05,1.6-.11,3.19-.16,4.78-.41,1.48-.73,3-3.53,3.31H34.51c-1.7-.44-3.44-1.45-3.44-5.35V18.66C30.15,11.76,37.69,5,44.93,4.59Z"/><path d="M48.81,10.19H80.75c3.8,0,2.82,7,0,7H48.81C44.62,17.2,45,10.19,48.81,10.19Z" fill="#fff"/><path d="M46.59,20.83h35c5.69-.32,9.07,4.67,9.47,8.87V42.42c-1.35,3.21-1.88,2.78-4.5,4.15H41.69c-3.39-.83-3.61-.46-5.15-4V29.46c.81-5.52,4.29-8,10.05-8.63Z" fill="#fff"/><ellipse cx="46.39" cy="62.62" rx="5.79" ry="5.7" fill="#fff"/><ellipse cx="81.06" cy="62.54" rx="5.79" ry="5.7" fill="#fff"/></svg>