<svg id="bd4d1f6a-2f9d-4f5a-a386-1aeaa1ee247c" data-name="SVGRoot" xmlns="http://www.w3.org/2000/svg" width="128" height="128" viewBox="0 0 128 128"><title>trainfreight</title><ellipse cx="65.6" cy="84.3" rx="5.4" ry="11" transform="translate(-7.02 5.97) rotate(-4.95)" stroke="#000" stroke-linecap="round" stroke-miterlimit="5.17" stroke-width="1.29"/><ellipse cx="77.9" cy="83.2" rx="5.4" ry="11" transform="matrix(1, -0.09, 0.09, 1, -6.88, 7.03)" stroke="#000" stroke-linecap="round" stroke-miterlimit="5.17" stroke-width="1.29"/><path d="M94.8,81.5l4-.9c0,4.4-1.8,10.7-4,10.7s-3.9-3.4-4-7.7Z" stroke="#000" stroke-linecap="round" stroke-miterlimit="5.17" stroke-width="1.29"/><path d="M103.3,80l4,2.4c0,4.4-1.8,8.1-4,8.1s-4-3.7-4-8.1v-.2Z" stroke="#000" stroke-linecap="round" stroke-miterlimit="5.17" stroke-width="1.29"/><path d="M114.3,83.2h3.1c0,3.5-1.4,6.4-3.1,6.4s-3-2.6-3.1-5.9Z" stroke="#000" stroke-linecap="round" stroke-miterlimit="5.17" stroke-width="1.29"/><path d="M119.6,82.8h3.1c0,3.5-1.4,6.4-3.1,6.4s-3.1-2.8-3.1-6.2Z" stroke="#000" stroke-linecap="round" stroke-miterlimit="5.17" stroke-width="1.29"/><path d="M14.5,82.6l5.4-.5c.5,6-1.5,11.2-4.4,11.4S9.7,89,9.2,83a15.48,15.48,0,0,1-.1-2.2Z" stroke="#000" stroke-linecap="round" stroke-miterlimit="5.17" stroke-width="1.29"/><ellipse cx="25.2" cy="81.4" rx="5.4" ry="11" transform="translate(-6.92 2.48) rotate(-4.95)" stroke="#000" stroke-linecap="round" stroke-miterlimit="5.17" stroke-width="1.29"/><path d="M56.3,99.9c.7-.1,1.3-.3,2-.4a435.91,435.91,0,0,1,64.2-8.8l-.2,1.7a324.09,324.09,0,0,0-54.2,9.5c-4.1,1.1-8,2.2-11.9,3.4C56.3,103.1,56.3,102,56.3,99.9Z" stroke="#000" stroke-miterlimit="5.17" stroke-width="2"/><polygon points="53.3 105.6 54.3 105.6 54.3 100.1 53.3 100.1 53.3 105.6" stroke="#000" stroke-miterlimit="5.17" stroke-width="2"/><path d="M52.6,99.2c3.7-.8,7.4-1.6,11.2-2.3a506.6,506.6,0,0,1,59.1-7.6" fill="none" stroke="#000" stroke-linecap="square" stroke-linejoin="round"/><path d="M13.2,96.7a11.8,11.8,0,0,0,2-.4c25.2-5.7,45.4-7.4,64.4-7.2l-.2,1.7A316.61,316.61,0,0,0,25,99c-4.1,1-8.1,2-11.9,3.1C13.1,99.9,13.1,98.8,13.2,96.7Z" stroke="#000" stroke-miterlimit="5.17" stroke-width="2"/><polygon points="10 102.3 11 102.4 11.2 96.8 10.2 96.8 10 102.3" stroke="#000" stroke-miterlimit="5.17" stroke-width="2"/><path d="M9.5,95.9c3.7-.7,7.4-1.4,11.2-2A477.5,477.5,0,0,1,80,87.8" fill="none" stroke="#000" stroke-linecap="square" stroke-linejoin="round"/><polygon points="67.7 105.9 11.2 100.3 17.9 97.7 75.9 103.4 67.7 105.9" stroke="#000" stroke-linecap="square" stroke-linejoin="round"/><polygon points="84.9 100.5 28.6 94.3 32.3 92.7 89.6 99.6 84.9 100.5" stroke="#000" stroke-linecap="square" stroke-linejoin="round"/><polygon points="97.9 97.7 40.4 91.7 44.1 90.1 101.3 97 97.9 97.7" stroke="#000" stroke-linecap="square" stroke-linejoin="round"/><polygon points="107.4 95.3 61.4 85.1 64.6 83.8 110.2 94.9 107.4 95.3" stroke="#000" stroke-linecap="square" stroke-linejoin="round"/><path d="M115.3,94.3,89.4,83.2l4.4-1.8c.2-.1-21.1,1.4-20.9,1.5l45.3,11Z" stroke="#000" stroke-linecap="square" stroke-linejoin="round"/><path d="M81,46l20.8,6.3,3.2,2.4s.3,24.7.3,26-24.6,2.7-24.6,2.7"/><path d="M7.7,85.3V52.2a5,5,0,0,1,1.9-3.8L14,44.8a2.58,2.58,0,0,0,1-1.9V37.3a2.46,2.46,0,0,1,.9-1.9L21,31.1a2.88,2.88,0,0,1,2-.7H47.5a3.19,3.19,0,0,1,1.4.3L53.4,33a2.64,2.64,0,0,1,1.5,2.3v6.3a2.61,2.61,0,0,1-1.3,2.2L48.1,47a2.61,2.61,0,0,0-1.3,2.2V89.5"/><path d="M30.3,42.1l-10.6.4A1.75,1.75,0,0,1,17.9,41l-.1-2.2a1.64,1.64,0,0,1,1.6-1.6L30,36.8a1.75,1.75,0,0,1,1.8,1.5l.1,2.2A1.47,1.47,0,0,1,30.3,42.1Z" fill="#fff"/><path d="M35.5,42l14.3.5A1.75,1.75,0,0,0,51.6,41l.1-2.2a1.64,1.64,0,0,0-1.6-1.6l-14.3-.5A1.75,1.75,0,0,0,34,38.2l-.1,2.2A1.58,1.58,0,0,0,35.5,42Z" fill="#fff"/><ellipse cx="31.2" cy="46" rx="2.9" ry="2.6" fill="#fff"/><ellipse cx="14.9" cy="55.5" rx="2.9" ry="2.6" fill="#fff"/><ellipse cx="40.4" cy="55.2" rx="3.2" ry="2.9" fill="#fff"/><ellipse cx="13.6" cy="78" rx="2.9" ry="2.6" fill="#fff"/><ellipse cx="39.2" cy="81.5" rx="3.2" ry="2.9" fill="#fff"/><polyline points="50.3 30.8 78.3 39.7 82 43.3 82 84.9 47.5 89.6 47.5 49.5 48 47.9 54.7 43.8 55.3 42 55.6 34.4 54.7 33.1"/><path d="M90,48.6a34.35,34.35,0,0,1,8.3-1.5,35.79,35.79,0,0,1,15.1,2.4c3.9,1.6,7.9,3.1,11.8,4.7V83.3H104l-.5-29.8Z"/><path d="M65.5,47.1,58.7,46a.82.82,0,0,1-.8-.9l.1-9a.82.82,0,0,1,.9-.8l6.7,1.9a.82.82,0,0,1,.8.9v8.1A1.06,1.06,0,0,1,65.5,47.1Z" fill="#fcfcfc"/><path d="M75.4,49.1l-6.1-1a.71.71,0,0,1-.7-.8v-8a.71.71,0,0,1,.8-.7l6.1,1.7a.71.71,0,0,1,.7.8v7.3A.77.77,0,0,1,75.4,49.1Z" fill="#fcfcfc"/><polygon points="103.3 83.3 103.7 80.3 103.7 51.9 103.3 54.9 103.3 83.3" fill="#fff" stroke="#fff" stroke-linecap="round" stroke-miterlimit="5.17" stroke-width="1.29"/><path d="M91.4,49.1a29.1,29.1,0,0,1,6,.7,24.66,24.66,0,0,1,6.6,2.5" fill="#fff" stroke="#fff" stroke-linecap="round" stroke-miterlimit="5.17" stroke-width="1.29"/><polygon points="81.1 54.5 80.2 54.1 71.4 53.3 72.3 53.7 81.1 54.5" fill="#fff" stroke="#fff" stroke-linecap="round" stroke-miterlimit="5.17" stroke-width="1.29"/><polygon points="81.1 59.9 80.2 59.5 71.4 58.6 72.3 59 81.1 59.9" fill="#fff" stroke="#fff" stroke-linecap="round" stroke-miterlimit="5.17" stroke-width="1.29"/><polygon points="81.1 65.2 80.2 64.8 71.4 63.9 72.3 64.3 81.1 65.2" fill="#fff" stroke="#fff" stroke-linecap="round" stroke-miterlimit="5.17" stroke-width="1.29"/><polygon points="81.1 70 80.2 69.6 71.4 69.2 72.3 69.6 81.1 70" fill="#fff" stroke="#fff" stroke-linecap="round" stroke-miterlimit="5.17" stroke-width="1.29"/><polygon points="81.1 74.8 80.2 74.4 71.4 74 72.3 74.4 81.1 74.8" fill="#fff" stroke="#fff" stroke-linecap="round" stroke-miterlimit="5.17" stroke-width="1.29"/><polygon points="81.1 79.1 80.1 78.8 71.3 79 72.3 79.3 81.1 79.1" fill="#fff" stroke="#fff" stroke-linecap="round" stroke-miterlimit="5.17" stroke-width="1.29"/><polygon points="81.1 83.6 80.1 83.3 71.4 84.1 72.3 84.4 81.1 83.6" fill="#fff" stroke="#fff" stroke-linecap="round" stroke-miterlimit="5.17" stroke-width="1.29"/><polygon points="109.5 80.7 109.8 77.9 109.8 51.9 109.5 54.7 109.5 80.7" fill="#fff" stroke="#fff" stroke-linecap="round" stroke-miterlimit="5.17" stroke-width="1.29"/><polygon points="113.3 80.7 113.6 78 113.6 53.2 113.3 55.9 113.3 80.7" fill="#fff" stroke="#fff" stroke-linecap="round" stroke-miterlimit="5.17" stroke-width="1.29"/><polygon points="116.6 80.7 116.9 78.2 116.9 54.5 116.6 57 116.6 80.7" fill="#fff" stroke="#fff" stroke-linecap="round" stroke-miterlimit="5.17" stroke-width="1.29"/><polygon points="122.7 80.7 123 78.4 123 56.5 122.7 58.9 122.7 80.7" fill="#fff" stroke="#fff" stroke-linecap="round" stroke-miterlimit="5.17" stroke-width="1.29"/><polygon points="119.6 80.7 119.9 78.3 119.9 55.6 119.6 58 119.6 80.7" fill="#fff" stroke="#fff" stroke-linecap="round" stroke-miterlimit="5.17" stroke-width="1.29"/></svg>