<svg id="a564e95f-004e-4d15-b38e-80f6c068548e" data-name="svg4" xmlns="http://www.w3.org/2000/svg" width="128" height="128" viewBox="0 0 128 128"><title>unknownalarm</title><g style="isolation:isolate"><path d="M43.8,46.6a19,19,0,0,1,2.7-9.4,21.37,21.37,0,0,1,7.9-7.9,22.71,22.71,0,0,1,12.1-3.1,24.15,24.15,0,0,1,11.3,2.6A18.92,18.92,0,0,1,88.1,45.7,16.7,16.7,0,0,1,86.6,53,21.2,21.2,0,0,1,83,58.4c-1.4,1.5-3.9,4.1-7.5,7.6a26,26,0,0,0-2.4,2.7,8.59,8.59,0,0,0-1.3,2.1,14.58,14.58,0,0,0-.7,1.9c-.2.6-.4,1.8-.7,3.3-.6,3.4-2.3,5.1-5.3,5.1a5.38,5.38,0,0,1-3.9-1.7,7.2,7.2,0,0,1-1.6-4.9,21.61,21.61,0,0,1,1.1-7.1,20.89,20.89,0,0,1,3-5.3q2-2.25,5.1-5.4c1.9-1.8,3.2-3.2,4.1-4.1A16.88,16.88,0,0,0,75,49.5a7.79,7.79,0,0,0,.9-3.7,9.3,9.3,0,0,0-2.6-6.6,9.12,9.12,0,0,0-6.8-2.7q-4.8,0-7.2,2.7a23.81,23.81,0,0,0-3.9,8c-1,3.7-2.9,5.5-5.7,5.5a5.35,5.35,0,0,1-4.2-1.9A6.65,6.65,0,0,1,43.8,46.6ZM65.4,100a6.41,6.41,0,0,1-4.7-1.9,7.32,7.32,0,0,1-2-5.4,7.43,7.43,0,0,1,1.9-5.2,6.29,6.29,0,0,1,4.8-2.1,6.09,6.09,0,0,1,4.7,2.1A8.18,8.18,0,0,1,70,98.1,6.35,6.35,0,0,1,65.4,100Z" stroke="#000" stroke-miterlimit="10"/></g></svg>