<svg id="bfd4feaf-5ea0-403b-8d3c-c8983484bb39" data-name="SVGRoot" xmlns="http://www.w3.org/2000/svg" width="128" height="128" viewBox="0 0 128 128"><title>vehiclefreighttruck</title><rect x="35.8" y="32.6" width="88.3" height="32.1"/><circle cx="18.2" cy="81.4" r="6.9"/><circle cx="85.1" cy="81.4" r="6.9"/><circle cx="104" cy="81.4" r="6.9"/><path d="M124.9,81.4V72.5H33.1v-33H29L18.2,43.9l-6.8.1a5.41,5.41,0,0,0-3.6,1.7,5.64,5.64,0,0,0-1.4,4.2,7.57,7.57,0,0,1-1.5.1v2l2-.1v7.6a2.59,2.59,0,0,0-1.4.9,3,3,0,0,0-.6,1.4V80.4l5.5,1a8.13,8.13,0,0,1,8.4-7.8,8.13,8.13,0,0,1,7.6,7.8h4.3a3.71,3.71,0,0,0,.8,2,3.83,3.83,0,0,0,1.2,1.1H45.6A3.36,3.36,0,0,0,47.2,83a2.46,2.46,0,0,0,.2-1.6h4.8a2.25,2.25,0,0,0,.5,1.4,1.88,1.88,0,0,0,1.4.6c4.4.1,8.9.1,13.3.2a2.48,2.48,0,0,0,1.2-1.3,1.67,1.67,0,0,0,0-1h8.5a8.08,8.08,0,0,1,8.2-7.7c5.2,0,7.3,3.6,7.6,7.7h3.5c.2-4.2,3.4-7.9,7.8-7.6,5,.3,7.5,3.5,7.7,7.6C116.1,81.4,120.5,81.4,124.9,81.4Z"/><rect x="8.3" y="51.9" width="13.9" height="8.5" fill="#fff"/><rect x="35.8" y="66" width="88.3" height="5"/></svg>