<svg id="e81ad0e3-210d-49c7-938d-0d152c19fb0c" data-name="SVGRoot" xmlns="http://www.w3.org/2000/svg" width="128" height="128" viewBox="0 0 128 128"><title>vehiclecar</title><g id="b1273b09-b0da-4c8d-833a-6f9f76ac4dbd" data-name="g883"><path id="f428b21d-e274-4d57-b838-0a755953b432" data-name="path832" d="M63.57,90.4l-30.1.08v11A3.41,3.41,0,0,1,30.15,104H18.24a3,3,0,0,1-2.36-2.87V90.53a3.87,3.87,0,0,1-2.23-.34c-2-6.19-2.19-12.88-2.15-19.28a52.82,52.82,0,0,1,2-12.33,64.17,64.17,0,0,1,7.24-12.67c-1.43-1.06-2.95-2.24-4.38-3.33L5.9,42.66a3.79,3.79,0,0,1-1.89-2c0-2.15.12-4.3.17-6.44,0-1,.5-1.39,1.26-1.44H19c1.27.3,1.56.72,1.6,1.27.09,1.68.13,3.32.17,5,.47.75.93,1.55,1.43,2.31,1.86-6.31,3.33-14.65,5.56-18.94a10.4,10.4,0,0,1,5-3H96.32a10.4,10.4,0,0,1,5,3c2.23,4.29,3.71,12.63,5.56,18.94.46-.76.92-1.56,1.43-2.31,0-1.69.13-3.33.17-5,0-.51.38-1,1.6-1.27h13.55c.76,0,1.22.42,1.26,1.44.09,2.14.13,4.29.17,6.44a3.76,3.76,0,0,1-1.89,2l-10.44-.08c-1.43,1.09-2.95,2.23-4.38,3.33a64.17,64.17,0,0,1,7.24,12.67,52.31,52.31,0,0,1,2,12.33c0,6.44-.13,13.09-2.15,19.28a4.3,4.3,0,0,1-2.23.34v10.6a3,3,0,0,1-2.35,2.87H98.93a3.45,3.45,0,0,1-3.32-2.53v-11Z" fill-rule="evenodd"/><path id="a4137776-5b8d-4d1c-8265-d661619055f0" data-name="path834" d="M24.47,60.26a8.63,8.63,0,1,1-8.63,8.63A8.61,8.61,0,0,1,24.47,60.26Z" fill="#fefefe" fill-rule="evenodd"/><path id="e309206b-9fdb-4d9c-b4c7-e6d496c55169" data-name="path836" d="M101.54,60.18a8.63,8.63,0,1,1-8.63,8.63A8.61,8.61,0,0,1,101.54,60.18Z" fill="#fefefe" fill-rule="evenodd"/><path id="b9404135-ac88-4e60-8c94-aaab957ae706" data-name="path838" d="M43.91,62.36H83a3.74,3.74,0,0,1,3.7,3.71v6.27A3.74,3.74,0,0,1,83,76.05H43.91a3.71,3.71,0,0,1-3.7-3.71V66.07A3.71,3.71,0,0,1,43.91,62.36Z" fill="#fefefe" fill-rule="evenodd"/><path id="b1d28fd5-4a4e-47e4-b576-83076ca31900" data-name="path840" d="M33.85,25H92.58c2.86.17,5.09.89,5.26,3.54l3,13.72H27.12c1.18-4.88,2.31-9.8,3.49-14.69A3,3,0,0,1,33.85,25Z" fill="#fefefe" fill-rule="evenodd"/></g></svg>