<svg id="a1bab00c-4493-4aab-9c6a-92d1bfaa5260" data-name="SVGRoot" xmlns="http://www.w3.org/2000/svg" width="128" height="128" viewBox="0 0 128 128"><title>vehiclepickuptruck</title><path d="M5.1,68.9H123.4a2.69,2.69,0,0,1,.7.6,1.72,1.72,0,0,1,.3,1V76a2,2,0,0,1-.4.9,1.61,1.61,0,0,1-.7.4,9.88,9.88,0,0,1-1.3.6,34.22,34.22,0,0,1-5.1,1.4H12.1a26.69,26.69,0,0,1-3.5-.5c-1.3-.3-2.4-.6-3.4-.9a2.9,2.9,0,0,1-.8-1,1.85,1.85,0,0,1-.4-1v-5a3.07,3.07,0,0,1,.5-1.3A3.19,3.19,0,0,0,5.1,68.9Z" fill="#020202"/><path d="M7.2,50.3a35.8,35.8,0,0,0-1.1,3.5,30.12,30.12,0,0,0-.6,11.7H45.4V50.3Z"/><path d="M50.9,36.5a15.42,15.42,0,0,0-1.4,4,17.58,17.58,0,0,0-.3,6.3V65.6H122l-1.8-9.2a6.49,6.49,0,0,0-1.9-2.6,5.39,5.39,0,0,0-3.2-1.1L93.9,48.8A36.06,36.06,0,0,0,79.6,38.4a30,30,0,0,0-6.9-1.9Z"/><circle cx="27.8" cy="78.5" r="13.5" stroke="#fff" stroke-miterlimit="10" stroke-width="1.5"/><circle cx="27.8" cy="78.5" r="4.9" fill="#020202" stroke="#fff" stroke-miterlimit="10" stroke-width="5"/><circle cx="99.8" cy="78.5" r="13.5" stroke="#fff" stroke-miterlimit="10" stroke-width="1.5"/><circle cx="99.8" cy="78.5" r="4.9" fill="#020202" stroke="#fff" stroke-miterlimit="10" stroke-width="5"/><path d="M9.2,64.3H7.4a.63.63,0,0,1-.6-.5,15.14,15.14,0,0,1-.3-3.2,18.27,18.27,0,0,1,.3-3.5.56.56,0,0,1,.6-.5H9.2a.65.65,0,0,1,.6.6v6.4C9.8,64.1,9.5,64.3,9.2,64.3Z" fill="#fff"/><path d="M107.6,53.3l8.6.9a5.89,5.89,0,0,1,1.4.7,4.82,4.82,0,0,1,.8,1,23,23,0,0,1,1.2,3.4.49.49,0,0,1-.4.6c-2.4-.1-7.7.1-8.4-1.3A19.23,19.23,0,0,1,107.6,53.3Z" fill="#fffdfd"/><path d="M53.2,50.3a51.34,51.34,0,0,1,.3-5.3c.2-1.5.4-2.9.6-4.1h9.3v9.5H53.2Z" fill="#fff"/><path d="M68,40.8v9.5H88.3a25,25,0,0,0-11.6-8.2A28.94,28.94,0,0,0,68,40.8Z" fill="#fff"/></svg>