<svg id="Layer_1" data-name="Layer 1" xmlns="http://www.w3.org/2000/svg" viewBox="0 0 233.58 241.53"><defs><style>.cls-1{fill:#00a650;fill-rule:evenodd;}</style></defs><title>SWIRL_RED_18112701TR</title><path class="cls-1" d="M38.22,40.33A98.21,98.21,0,0,1,65.47,25.48c14.83-5.25,37.07-8.32,55.53-4.39,17.48,3.72,32.25,10.12,43.51,19.62,14,11.85,22.64,28.53,23.1,53.78a101.07,101.07,0,0,0-10.79-17c-12.25-21.12-31.23-36-61-39.1a79.73,79.73,0,0,0-14.2-.52c-21.06,1.72-37.16,8.62-49.87,18.68C30.68,71.44,17.21,94.93,13.88,120.76h0c-.22,1.61-.42,3.24-.6,4.9-.84,9.68-1.1,19.1.38,27.5,2.93,16.62,10.1,29.27,17.82,40.81a107.26,107.26,0,0,0,13.56,15.75,108.2,108.2,0,0,0,35.13,23.37A113.43,113.43,0,0,0,130,241.36c-35.92-2.89-64.67-13.63-77.15-39.51-.06,0-.06-.08-.07-.14l.07.14h.06c1.67,1.27,3.59,2.41,5.42,3.62,12.35,8.12,26.18,15.19,42,19.5a105,105,0,0,0,31.38,3.74c22-.93,38.87-8,53.59-16.78,14.56-8.67,27.61-19.66,36.8-33.45,1.13-1.69,2.34-3.4,3.36-5.16a128.4,128.4,0,0,0,7.1-14.85,8.73,8.73,0,0,0,1-3.23c-9.73,17.77-22.23,33.68-38.22,46a98.06,98.06,0,0,1-27.25,14.85c-14.83,5.25-37.06,8.32-55.52,4.39-17.48-3.72-32.26-10.12-43.52-19.63C55,189,46.44,172.28,46,147a101.25,101.25,0,0,0,10.78,17c12.25,21.13,31.23,36,61,39.11a78.9,78.9,0,0,0,14.21.51c21-1.72,37.16-8.61,49.87-18.68,21.08-14.89,34.54-38.38,37.87-64.21h0c.22-1.61.43-3.23.61-4.89.83-9.68,1.09-19.1-.39-27.5-2.93-16.63-10.1-29.28-17.82-40.81a106.66,106.66,0,0,0-13.56-15.75A108.18,108.18,0,0,0,153.41,8.43,113.48,113.48,0,0,0,103.56.17c35.92,2.88,64.67,13.62,77.16,39.51.05,0,.06.07.06.13l-.06-.13h-.06c-1.68-1.27-3.59-2.4-5.43-3.61-12.35-8.12-26.18-15.2-42-19.5a105,105,0,0,0-31.37-3.75c-22,.93-38.88,8-53.59,16.79S20.69,49.27,11.49,63.06c-1.13,1.69-2.34,3.39-3.35,5.16A128.45,128.45,0,0,0,1,83.07,8.86,8.86,0,0,0,0,86.3c9.74-17.78,22.24-33.69,38.22-46" transform="translate(0 0)"/></svg>