<?xml version="1.0" encoding="UTF-8"?>
<!DOCTYPE svg PUBLIC "-//W3C//DTD SVG 1.1//EN" "http://www.w3.org/Graphics/SVG/1.1/DTD/svg11.dtd">
<!-- Creator: CorelDRAW X6 -->
<svg xmlns="http://www.w3.org/2000/svg" xml:space="preserve" width="4.69444in" height="1.95833in" version="1.1" style="shape-rendering:geometricPrecision; text-rendering:geometricPrecision; image-rendering:optimizeQuality; fill-rule:evenodd; clip-rule:evenodd"
viewBox="0 0 4694 1958"
 xmlns:xlink="http://www.w3.org/1999/xlink">
 <defs>
  <style type="text/css">
   <![CDATA[
    .fil1 {fill:#FEFEFE;fill-rule:nonzero}
    .fil0 {fill:#00A757;fill-rule:nonzero}
   ]]>
  </style>
 </defs>
 <g id="Layer_x0020_1">
  <metadata id="CorelCorpID_0Corel-Layer"/>
  <path class="fil0" d="M1946 1121l136 0 1 0c21,-58 37,-122 44,-193 0,-23 -1,-45 -2,-67l-111 0 -67 260z"/>
  <path class="fil0" d="M2178 1387c-64,92 -109,147 -198,216 -64,49 -193,119 -277,148 -120,43 -301,68 -451,36 -142,-30 -262,-82 -353,-159 -117,-99 -188,-239 -188,-454 0,-14 -2,-28 2,-41 88,271 255,480 580,513 38,4 78,7 115,4 205,-17 353,-94 464,-204 1,-1 2,-2 4,-4 4,-3 7,-7 11,-10 3,-3 6,-6 9,-9 11,-12 21,-24 30,-36l-89 0c-240,-6 -163,-261 -163,-261l117 -465c-109,-211 -293,-356 -607,-356 -63,0 -119,12 -172,26 -53,14 -101,32 -145,54 -26,16 -51,34 -74,51l257 0 -66 267 -434 0c-10,17 -20,34 -27,51 0,1 -2,3 -2,5 -2,6 -5,12 -7,18l331 0 -68 268 -333 0c-5,69 -5,136 5,196 24,135 82,238 145,331 32,47 71,89 110,128 78,78 173,143 285,190 113,47 247,75 404,67 -291,-23 -525,-111 -626,-321 0,0 0,0 1,0 14,10 29,20 44,29 100,66 212,123 341,158 76,21 166,34 255,30 179,-8 315,-65 435,-136 118,-70 224,-159 299,-271 9,-14 19,-28 27,-42 3,-6 6,-12 9,-17l0 0z"/>
  <path class="fil0" d="M574 388c5,-1 11,-10 18,-16 42,-38 92,-74 138,-102 111,-67 257,-115 432,-115 44,0 88,1 129,7 38,6 75,17 110,27 198,58 354,163 423,351l37 -146 126 0c-32,-46 -69,-88 -107,-127 -54,-54 -113,-104 -180,-144 -122,-73 -274,-124 -463,-125l-12 0c-15,0 -29,0 -45,1 293,23 523,109 628,321 -86,-60 -179,-116 -287,-156 -108,-41 -231,-71 -378,-61 -67,5 -130,16 -188,34 -168,52 -306,143 -417,248 -4,2 -1,2 1,2 7,1 27,2 36,0z"/>
  <path class="fil1" d="M1088 1178l299 0c22,0 34,-1 38,-4 3,-3 8,-15 13,-37l72 -288c5,-22 7,-34 5,-37 -2,-3 -14,-4 -36,-4l-299 0c-22,0 -34,1 -38,4 -3,3 -8,15 -13,37l-72 288c-5,22 -7,34 -5,37 2,3 14,4 36,4zm-71 152c-44,0 -78,-16 -102,-47 -24,-31 -30,-69 -19,-113l88 -354c11,-44 36,-82 75,-113 39,-31 81,-47 125,-47l364 0c44,0 78,16 102,47 24,31 30,69 19,113l-88 354c-11,44 -36,82 -75,113 -39,31 -81,47 -125,47l-364 0z"/>
  <path class="fil1" d="M1847 1330c-44,0 -78,-16 -102,-47 -24,-31 -30,-69 -19,-113l180 -721 152 0 -52 207 263 0 -38 152 -263 0 -82 329c-5,22 -7,34 -5,37 2,3 14,4 36,4l222 0 -38 152 -255 0z"/>
  <path class="fil1" d="M2471 932l380 0 21 -84c5,-22 7,-34 5,-37 -2,-3 -14,-4 -36,-4l-299 0c-22,0 -34,1 -38,4 -3,3 -8,15 -13,37l-21 84zm-91 398c-44,0 -78,-16 -102,-47 -24,-31 -30,-69 -19,-113l88 -354c11,-44 36,-82 75,-113 39,-31 81,-47 125,-47l364 0c44,0 78,16 102,47 24,31 30,69 19,113l-63 254 -533 0 -17 67c-5,22 -7,34 -5,37 2,3 14,4 36,4l492 0 -38 152 -525 0z"/>
  <path class="fil1" d="M3207 1330c-44,0 -78,-16 -102,-47 -24,-31 -30,-69 -19,-113l88 -354c11,-44 36,-82 75,-113 39,-31 81,-47 125,-47l523 0 -38 152 -491 0c-22,0 -34,1 -38,4 -3,3 -8,15 -13,37l-72 288c-5,22 -7,34 -5,37 2,3 14,4 36,4l492 0 -38 152 -525 0z"/>
  <path class="fil1" d="M3877 1330l223 -896 152 0 -55 221 372 0c43,0 77,16 101,47 14,18 22,39 24,61l0 25c-1,9 -2,18 -5,27l-128 514 -152 0 120 -482c5,-22 7,-34 5,-37 -2,-3 -14,-4 -36,-4l-299 0c-22,0 -34,1 -38,4 -3,3 -8,15 -13,37l-120 482 -152 0z"/>
  <polygon class="fil1" points="0,1330 209,492 980,492 941,647 325,647 279,833 774,833 735,989 240,989 155,1330 "/>
 </g>
</svg>