<svg id="f83fa7af-a398-4c7b-a656-0967996ebf86" data-name="SVGRoot" xmlns="http://www.w3.org/2000/svg" width="128" height="128" viewBox="0 0 128 128"><title>brokenrail</title><path d="M37.73,18.82H88.26V39.21H37.73Z" fill="#b3b3b3"/><path d="M37.73,52.8H88.26V73.19H37.73Z" fill="#b3b3b3"/><path d="M37.73,86.79H88.26v20.39H37.73Z" fill="#b3b3b3"/><path d="M106.92,18.82H121.3V39.21H106.92Z" fill="#b3b3b3"/><path d="M106.92,86.79H121.3v20.39H106.92Z" fill="#b3b3b3"/><path d="M4.7,18.82H18.3V39.21H4.7Z" fill="#b3b3b3"/><path d="M4.7,52.8H18.3V73.19H4.7Z" fill="#b3b3b3"/><path d="M4.7,86.79H18.3v20.39H4.7Z" fill="#b3b3b3"/><path d="M21.41,5H34.62V121H21.41Z"/><path d="M114,72.11c-11.38,7.12-9.27,30-9.37,48.89H91.37c.1-19.71-.42-44.07,9.75-52.49-.25,2-1.19,4.2-.16,5.67l5.66-2.2.48,2.35"/><path d="M114,53.89c-11.38-7.12-9.27-30-9.37-48.89H91.37c.1,19.71-.42,44.07,9.75,52.49-.25-2-1.19-4.2-.16-5.67l5.66,2.2.48-2.35"/><path d="M4.9,28.8v-10h13v20H4.9Z" stroke="#fff" stroke-linecap="round" stroke-linejoin="round" stroke-width="0.15"/><path d="M37.9,28.8v-10h50v20h-50Z" stroke="#fff" stroke-linecap="round" stroke-linejoin="round" stroke-width="0.15"/><path d="M106.9,28.8v-10h14v20h-14Z" stroke="#fff" stroke-linecap="round" stroke-linejoin="round" stroke-width="0.15"/><path d="M37.9,62.8v-10h50v20h-50Z" stroke="#fff" stroke-linecap="round" stroke-linejoin="round" stroke-width="0.15"/><path d="M4.9,62.8v-10h13v20H4.9Z" stroke="#fff" stroke-linecap="round" stroke-linejoin="round" stroke-width="0.15"/><path d="M4.9,96.8v-10h13v20H4.9Z" stroke="#fff" stroke-linecap="round" stroke-linejoin="round" stroke-width="0.15"/><path d="M37.9,96.8v-10h50v20h-50Z" stroke="#fff" stroke-linecap="round" stroke-linejoin="round" stroke-width="0.15"/><path d="M106.9,96.8v-10h14v20h-14Z" stroke="#fff" stroke-linecap="round" stroke-linejoin="round" stroke-width="0.15"/></svg>