<svg id="a3014fce-f862-4055-a0c9-ba0567f72722" data-name="SVGRoot" xmlns="http://www.w3.org/2000/svg" width="128" height="128" viewBox="0 0 128 128"><title>cabletheft</title><path d="M35.1,70.3c-.4-3.7,1.7-9.5,4.7-13.2" fill="none" stroke="#000" stroke-linecap="square" stroke-miterlimit="10" stroke-width="3"/><line x1="35" y1="71.3" x2="35.7" y2="75.6" fill="none" stroke="#000" stroke-linecap="round" stroke-miterlimit="10"/><line x1="23.4" y1="54.7" x2="52.2" y2="16.5" fill="none" stroke="#000" stroke-linecap="round" stroke-miterlimit="10" stroke-width="3"/><line x1="42.9" y1="69.7" x2="71.7" y2="31.6" fill="none" stroke="#000" stroke-linecap="round" stroke-miterlimit="10" stroke-width="3"/><line x1="44.3" y1="59.6" x2="62.8" y2="34.9" fill="none" stroke="#000" stroke-linecap="round" stroke-miterlimit="10" stroke-width="3"/><line x1="40.3" y1="56.7" x2="58.9" y2="32" fill="none" stroke="#000" stroke-linecap="round" stroke-miterlimit="10" stroke-width="3"/><line x1="36.2" y1="53.7" x2="54.8" y2="29" fill="none" stroke="#000" stroke-linecap="round" stroke-miterlimit="10" stroke-width="3"/><line x1="31.9" y1="50.9" x2="50.5" y2="26.2" fill="none" stroke="#000" stroke-linecap="round" stroke-miterlimit="10" stroke-width="3"/><polyline points="68.7 9.8 74 14.1 72.3 8.1" fill="none" stroke="#000" stroke-linecap="round" stroke-linejoin="bevel" stroke-width="2"/><circle cx="83.9" cy="19.9" r="12.5"/><path d="M73.3,14.9l21.6,2.2a7.86,7.86,0,0,1,.6,3.5,10.67,10.67,0,0,1-.6,3.2L72.2,18.4a6.14,6.14,0,0,1,.3-2.1A3.69,3.69,0,0,1,73.3,14.9Z" fill="#fff"/><path d="M90.1,18.4a5.62,5.62,0,0,1,2.7.7A6.23,6.23,0,0,1,94,20a2.86,2.86,0,0,1-1.4,1.4,3.4,3.4,0,0,1-1.9-.1,3.26,3.26,0,0,1-.6-1.2A9.19,9.19,0,0,1,90.1,18.4Z"/><path d="M74,33.5a14,14,0,0,1,6.1,0c2.7.6,4.9,1.2,6.4,1.6a40.56,40.56,0,0,1,3.7,3.8c2.1,2.5,2.9,5.2,6.4,10.3.7,1.1,1.3,1.9,1.7,2.5,3.9-1.8,7.8-3.7,11.6-5.5a6,6,0,0,1,5.3,3.1,6,6,0,0,1,.1,5.4c-1.7,1-3.5,1.9-5.3,2.9-3.6,1.8-7,3.3-10.3,4.6a12.62,12.62,0,0,1-3,.3,17,17,0,0,1-2.7-.3,32.86,32.86,0,0,1-4.1-3.3A28.45,28.45,0,0,1,86.1,54c-2.6,6.8-5.1,13.6-7.7,20.5,3.7,5,7.4,10.1,11.1,15.1a19,19,0,0,1,1.1,2.1,44.7,44.7,0,0,1,3.6,10.1c1,3.8,2.3,8.5,4.2,14.7a6.43,6.43,0,0,1-2.9,7.6,6.37,6.37,0,0,1-7.7-1.1q-1.35-3.3-2.7-6.9c-2.2-5.9-4-11.6-5.5-17a22.56,22.56,0,0,0-1.1-2.2,58,58,0,0,0-10.4-14,27.68,27.68,0,0,1-1.8,5.3,17.07,17.07,0,0,1-1.4,2.7,19.7,19.7,0,0,1-2.9,3,13.27,13.27,0,0,1-3,1.9c-1.8.2-4.6.4-8.1.5-4.4,0-6.8-.3-11.7-.5-2.4-.1-6.1-.2-10.6-.2A6.66,6.66,0,0,1,23.9,89a6.89,6.89,0,0,1,4.7-6.3c.9-.1,2.5-.3,4.5-.4,5.7-.2,8.4.8,13.6.9a52.48,52.48,0,0,0,8-.5c.6-2.2,1.5-5.5,2.6-9.6s1.7-6.5,3.5-13.5c2-7.8,3-11.7,3.3-12.6C66.2,41.9,69,34.2,74,33.5Z"/><polyline points="75.3 40.4 55 58.1 38.1 42.6" fill="none" stroke="#000" stroke-linecap="round" stroke-miterlimit="10" stroke-width="10"/></svg>