<svg id="bbf5691b-17ac-4e91-8e13-ece078706cd0" data-name="SVGRoot" xmlns="http://www.w3.org/2000/svg" width="128" height="128" viewBox="0 0 128 128"><title>drilling</title><rect x="56.7" y="9.7" width="15.1" height="21.1" stroke="#000" stroke-miterlimit="10"/><polygon points="48.3 13.1 48.3 39.7 55.2 50.7 73.7 50.7 80 39.7 80 13.1 74.5 13.1 74.5 33 54.1 32.9 54.1 13.1 48.3 13.1" stroke="#000" stroke-miterlimit="10"/><line x1="27.3" y1="25" x2="44" y2="24.8" fill="none" stroke="#000" stroke-linecap="round" stroke-miterlimit="10" stroke-width="5"/><line x1="84.2" y1="25.2" x2="101" y2="25" fill="none" stroke="#000" stroke-linecap="round" stroke-miterlimit="10" stroke-width="5"/><polygon points="57.3 53.8 58.3 67.5 61 67.5 61.6 104 64.3 107.6 67.3 104 67.5 66.9 70.2 67.1 71.6 53.8 57.3 53.8" stroke="#000" stroke-miterlimit="10"/><line x1="76.7" y1="101.9" x2="88.6" y2="96.8" fill="none" stroke="#000" stroke-linecap="round" stroke-miterlimit="10" stroke-width="3"/><line x1="51.9" y1="101.3" x2="40" y2="96.2" fill="none" stroke="#000" stroke-linecap="round" stroke-miterlimit="10" stroke-width="3"/><line x1="75.5" y1="94.2" x2="87.6" y2="82.3" fill="none" stroke="#000" stroke-linecap="round" stroke-miterlimit="10" stroke-width="3"/><line x1="54.2" y1="94.4" x2="42.5" y2="82.6" fill="none" stroke="#000" stroke-linecap="round" stroke-miterlimit="10" stroke-width="3"/><path d="M36.5,109.9H56.8a7.8,7.8,0,0,0,15.6,0c6.7-.1,13.4-.1,20-.2" fill="none" stroke="#000" stroke-linecap="round" stroke-miterlimit="10" stroke-width="3"/></svg>