<?xml version="1.0" encoding="UTF-8"?>
<svg id="SVGRoot" width="128px" height="128px" version="1.1" viewBox="0 0 128 128" xmlns="http://www.w3.org/2000/svg">
 <g transform="matrix(3.508 0 0 3.8547 -324 -120.36)" fill-rule="evenodd">
  <path d="m98.207 36.667-1.1115 7.9512c0.69365-0.66091 1.3379-1.2952 2.1747-2.0332l0.90936-3.3692h3.319c-2.8632 1.8713-7.3349 6.1812-7.7795 6.8874-0.51225 1.0845 0.36717 6.3048 0.061 8.4776l-2.4214 7.9069c0.15842 0.93793 1.0607 1.0432 1.6567 0.6372l3.6025-7.7449c0.67313-1.5307 0.4069-4.3678 0.76249-6.3218 1.1892 1.8712 3.3559 3.9798 4.752 5.6441-0.95673 2.3161-2.3589 4.5107-3.3156 6.8268-0.25009 1.117 0.88951 1.8817 2.0391 1.147 1.3391-2.656 3.9909-7.4998 4.0172-7.9678 0 0-3.018-5.0127-4.5269-7.519l5.2192-3.1111-0.44278 6.7072 1.2916 0.92047 2.2877-9.5533-0.81379-1.5017c-0.83609-0.90846-1.5572-1.8476-1.6072-2.9657l-0.51574-0.95168z"/>
  <path d="m111.85 31.758c1.8285 0 3.3135 1.485 3.3135 3.3135 0 1.834-1.485 3.319-3.3135 3.319-1.834 0-3.3135-1.485-3.3135-3.319 0-1.8285 1.4794-3.3135 3.3135-3.3135z"/>
  <path d="m112.61 57.002-18.041-15.426c-0.20985-0.39315 0.18645-0.8373 0.57072-0.76465l18.457 15.099 1.1193-1.5847 4.0116 3.319 0.0665 2.4214-2.6098 0.93088-4.5934-2.6541z"/>
  <path d="m127.85 63.507-21.039 0.12744 1.4628-2.4214 2.8092 0.25489 0.95304-1.4185 6.3111 0.12744 1.7897-1.3354 3.7568 1.352 1.5348 1.9726 2.2275 0.57626z"/>
 </g>
</svg>
