<svg id="ac481943-4031-4c86-800a-5b15f09b63f1" data-name="SVGRoot" xmlns="http://www.w3.org/2000/svg" width="128" height="128" viewBox="0 0 128 128"><title>rockfall</title><polygon points="69.38 94.23 66.57 81.78 51.51 72.11 52.21 49.55 28.67 37.39 24.32 15.59 1.5 3.25 1.5 127.24 125.5 127.24 79.87 93.97 69.38 94.23"/><polygon points="47.47 38.75 70.66 38.75 70.66 20.79 49.84 14.52 37.74 24.36 47.47 38.75"/><polygon points="59.95 44.99 54.09 58.67 71.2 68.28 71.57 55.3 59.95 44.99"/><path d="M97.6,86.4l-5.81,5.68,8.64,9.17,0,0L107,92.08Z"/><polygon points="102.31 127.25 125.5 127.25 125.5 109.28 104.69 103.02 92.58 112.86 102.31 127.25"/><path d="M120.41,94l-7.71-1.08-.61,13.17a.11.11,0,0,0,0,0l10.63-.62Z"/><polygon points="115.93 79.73 121.79 93.42 104.69 103.02 104.32 90.04 115.93 79.73"/><path d="M97.74,102.51l-5.17-6.37-8.34,9.48,0,0,8.38,7.21Z"/><path d="M101.42,90.31l7.36-2.74-4.69-12.15s0,0,0,0L94.77,81Z"/><path d="M79.87,94,85,100.35l8.35-9.49,0,0L85,83.63Z"/><path d="M78.55,69.24l-5.8,5.68,8.63,9.17,0,0L88,74.92Z"/></svg>