<?xml version="1.0" encoding="UTF-8"?>
<svg id="SVGRoot" width="128px" height="128px" version="1.1" viewBox="0 0 128 128" xmlns="http://www.w3.org/2000/svg">
 <g transform="matrix(2.6559 0 0 2.6151 -55.441 -328.52)">
  <g>
   <path transform="rotate(35.544)" d="m120.34 107.57h1.4339l-0.43902 19.075-1.3308 0.65267z" stroke="#000" stroke-width=".19746"/>
   <path transform="matrix(-.81367 .58132 .58132 .81367 0 0)" d="m47.557 159.49h1.4339l0.15347 18.38-1.3308 0.65267z" stroke="#000" stroke-width=".19746"/>
   <path d="m34.722 159.6h19.236l1.4405 2.2224h-21.731z"/>
   <path d="m32.435 163.48h24.336l1.7962 2.4212-28.984-0.0699z" stroke="#000" stroke-width="1.1655"/>
   <path d="m28.243 168.46h31.816l2.3825 3.0174h-35.941z"/>
   <path d="m37.792 127.38h13.864c3.765-0.0929 5.4512 3.0004 5.4512 5.4429v23.676c0.14707 1.2853-0.49793 2.0473-1.653 2.1106h-3.2918c-0.68204-0.0759-1.0464-0.54886-1.2661-1.2028-0.0075-0.62191-0.01497-1.2438-0.02246-1.8657 0.03258-0.81952-0.5381-1.1286-1.2526-1.3159l-9.4866-0.0971c-0.57557 0.24086-1.2941 0.19576-1.3931 1.3898-0.02094 0.60854-0.04187 1.2171-0.06281 1.8256-0.15247 0.56735-0.27436 1.15-1.3294 1.2661h-3.4817c-0.63891-0.16848-1.2959-0.55596-1.2959-2.0473v-23.802c-0.34498-2.6389 2.4942-5.2112 5.2208-5.3796z"/>
  </g>
  <g fill="#fff">
   <path d="m39.253 129.52h12.024c1.4312 0 1.0642 2.6831 0 2.6831h-12.024c-1.5763 0-1.4218-2.6831 0-2.6831z"/>
   <path d="m38.416 133.59h13.178c2.1451-0.12392 3.4148 1.785 3.5659 3.3905v4.8662c-0.5062 1.2258-0.70697 1.0607-1.692 1.5841h-16.896c-1.2755-0.31443-1.3612-0.17507-1.9404-1.5237v-5.0174c0.3072-2.1113 1.6172-3.0698 3.7841-3.2998z"/>
   <circle cx="38.342" cy="149.57" r="2.18"/>
   <circle cx="51.397" cy="149.54" r="2.18"/>
  </g>
 </g>
</svg>
