<svg id="ae2ea0e6-1db5-4eed-baba-69fabb80da96" data-name="SVGRoot" xmlns="http://www.w3.org/2000/svg" width="128" height="128" viewBox="0 0 128 128"><title>trainpassenger</title><g id="fbcb87a1-6834-45cf-a72d-c8b5136b0314" data-name="g1142"><g id="b4948506-4837-4a28-a33f-08dae7b77dd4" data-name="g1096"><path id="adf54837-b000-473b-9e37-757601fd518f" data-name="path992" d="M13,86.93c16.42,6.6,70.87-.26,108.89.91.26,0,.9,0,.9-.52.26-5.3.39-8,.39-13.06,0-.39-.9-1.68-1.68-1.68-27.8-5.31-46.69-19.27-59.1-48-1-2.46-6.47-4.27-7.37-4.27-14-.9-31.3-1.55-37.25-.52-2.2.13-4.13,2.59-4.52,3.49-14.36,31.17-10,54.06-7.12,58.85A11.38,11.38,0,0,0,13,86.93Z" stroke="#000" stroke-miterlimit="6.69" stroke-width="1.67"/><circle id="fef38e2b-f01e-40dc-998b-cbab3ce21635" data-name="path994" cx="13.98" cy="66.63" r="4.78" fill="#fff"/><circle id="ea49dcb7-916b-43bd-97aa-b61e7a1e4500" data-name="path994-3" cx="51.62" cy="66.76" r="4.78" fill="#fff"/><path id="ef74de29-e787-45cd-a973-51b83d5b9a90" data-name="path1013" d="M9.2,40.5,14.63,26c.13-.78,1.94-1.68,2.72-1.81,5.56-1.29,23.53-.78,35.43.13l1.81.78C57.82,29,61.83,35.33,60.8,40.5c-.39.78-.39,2.33-1.81,1.94H11.14c-1,.13-1.68-.64-1.94-1.94Z" fill="#fff"/><path id="f659d94d-a3a7-474c-9f4d-45511200ef04" data-name="path1015" d="M69.85,45C68,62.75,71.66,68.7,77.87,69.6l-.13-16.16Z" fill="#fff"/><path id="aac0d17c-8127-4c84-a751-150e772135f5" data-name="path1015-0" d="M82.39,57.19C80.84,70,84.08,74,89.51,74.65v-12a43.14,43.14,0,0,1-7.12-5.43Z" fill="#fff"/><path id="bf7e8fc1-9288-4b0e-9f22-7bcc6da13a36" data-name="path1015-0-5" d="M93.77,65.08c-1.42,9.31,1.43,12.28,6.34,12.8.26-3.36-.13-5.95.13-9.18a36.12,36.12,0,0,1-6.47-3.62Z" fill="#fff"/><path id="a3c8a501-8b71-442e-aa4e-a40dc6327598" data-name="path1015-0-5-2" d="M103.6,70c-1.16,7,1.3,8.92,5.31,9.18V71.93A26.46,26.46,0,0,1,103.6,70Z" fill="#fff"/><path id="ad819c11-7542-4826-8ce6-333726bb6a59" data-name="path1015-0-5-7" d="M112,72.71c-1,5.94,1.16,7.63,4.91,7.88l-.26-6.85Z" fill="#fff"/><path id="a912ea49-713c-4fcd-9023-19956a494744" data-name="path1015-0-5-7-4" d="M119,74c-.64,5.56.78,7.11,3.11,7.37V74.26Z" fill="#fff"/></g></g><ellipse cx="65.6" cy="84.3" rx="5.4" ry="11" transform="translate(-7.02 5.97) rotate(-4.95)" stroke="#000" stroke-linecap="round" stroke-miterlimit="5.17" stroke-width="1.29"/><ellipse cx="77.9" cy="83.2" rx="5.4" ry="11" transform="matrix(1, -0.09, 0.09, 1, -6.88, 7.03)" stroke="#000" stroke-linecap="round" stroke-miterlimit="5.17" stroke-width="1.29"/><path d="M94.8,83.2h4c0,4.4-1.8,8.1-4,8.1s-3.9-3.4-4-7.7Z" stroke="#000" stroke-linecap="round" stroke-miterlimit="5.17" stroke-width="1.29"/><path d="M103.3,82.4h4c0,4.4-1.8,8.1-4,8.1s-4-3.7-4-8.1v-.2Z" stroke="#000" stroke-linecap="round" stroke-miterlimit="5.17" stroke-width="1.29"/><path d="M114.3,83.2h3.1c0,3.5-1.4,6.4-3.1,6.4s-3-2.6-3.1-5.9Z" stroke="#000" stroke-linecap="round" stroke-miterlimit="5.17" stroke-width="1.29"/><path d="M119.6,82.8h3.1c0,3.5-1.4,6.4-3.1,6.4s-3.1-2.8-3.1-6.2Z" stroke="#000" stroke-linecap="round" stroke-miterlimit="5.17" stroke-width="1.29"/><path d="M14.5,82.6l5.4-.5c.5,6-1.5,11.2-4.4,11.4S9.7,89,9.2,83a15.48,15.48,0,0,1-.1-2.2Z" stroke="#000" stroke-linecap="round" stroke-miterlimit="5.17" stroke-width="1.29"/><ellipse cx="25.2" cy="81.4" rx="5.4" ry="11" transform="translate(-6.92 2.48) rotate(-4.95)" stroke="#000" stroke-linecap="round" stroke-miterlimit="5.17" stroke-width="1.29"/><path d="M56.3,99.9c.7-.1,1.3-.3,2-.4a435.91,435.91,0,0,1,64.2-8.8l-.2,1.7a324.09,324.09,0,0,0-54.2,9.5c-4.1,1.1-8,2.2-11.9,3.4C56.3,103.1,56.3,102,56.3,99.9Z" stroke="#000" stroke-miterlimit="5.17" stroke-width="2"/><polygon points="53.3 105.6 54.3 105.6 54.3 100.1 53.3 100.1 53.3 105.6" stroke="#000" stroke-miterlimit="5.17" stroke-width="2"/><path d="M52.6,99.2c3.7-.8,7.4-1.6,11.2-2.3a506.6,506.6,0,0,1,59.1-7.6" fill="none" stroke="#000" stroke-linecap="square" stroke-linejoin="round"/><path d="M13.2,96.7a11.8,11.8,0,0,0,2-.4c25.2-5.7,45.4-7.4,64.4-7.2l-.2,1.7A316.61,316.61,0,0,0,25,99c-4.1,1-8.1,2-11.9,3.1C13.1,99.9,13.1,98.8,13.2,96.7Z" stroke="#000" stroke-miterlimit="5.17" stroke-width="2"/><polygon points="10 102.3 11 102.4 11.2 96.8 10.2 96.8 10 102.3" stroke="#000" stroke-miterlimit="5.17" stroke-width="2"/><path d="M9.5,95.9c3.7-.7,7.4-1.4,11.2-2A477.5,477.5,0,0,1,80,87.8" fill="none" stroke="#000" stroke-linecap="square" stroke-linejoin="round"/><polygon points="67.7 105.9 11.2 100.3 17.9 97.7 75.9 103.4 67.7 105.9" stroke="#000" stroke-linecap="square" stroke-linejoin="round"/><polygon points="84.9 100.5 28.6 94.3 32.3 92.7 89.6 99.6 84.9 100.5" stroke="#000" stroke-linecap="square" stroke-linejoin="round"/><polygon points="97.9 97.7 40.4 91.7 44.1 90.1 101.3 97 97.9 97.7" stroke="#000" stroke-linecap="square" stroke-linejoin="round"/><polygon points="107.4 95.3 61.4 85.1 64.6 83.8 110.2 94.9 107.4 95.3" stroke="#000" stroke-linecap="square" stroke-linejoin="round"/><path d="M115.3,94.3,89.4,83.2l4.4-1.8c.2-.1-21.1,1.4-20.9,1.5l45.3,11Z" stroke="#000" stroke-linecap="square" stroke-linejoin="round"/></svg>