<svg id="a0b90eb7-dcfc-4338-8187-efc1cc7a9f1e" data-name="SVGRoot" xmlns="http://www.w3.org/2000/svg" width="128" height="128" viewBox="0 0 128 128"><title>unknownleak</title><path d="M30.4,73.8A24.8,24.8,0,1,1,5.6,98.6,24.8,24.8,0,0,1,30.4,73.8Z" fill="none" stroke="#000" stroke-width="6.56"/><path d="M27.7,67.1c10.7-5.7,21.2-10,31.9-15.6,18.8.7,32,18.4,27.5,34.3-9.4,8.5-17.5,16.9-27,25.4,8.6-24.9-9.6-46-32.4-44.1Z" fill-rule="evenodd"/><path d="M63.4,49.9l39.7-18.5c13.1,3.3,20,17.5,18.6,23.7L89.6,82.5C93.6,64.2,79.4,51.3,63.4,49.9Z" fill-rule="evenodd"/><path d="M37.1,62.1,51.3,62l5.6,11.9,16.4,6.9L61.7,66.4,57.9,54.1l-9.5-3.9Z" fill="#fff"/><path id="e4e54c48-a681-4d6e-8d47-4c4c9d0cd091" data-name="path884" d="M13.9,35.3,11.2,18c-.3-3.4-.5-5.8-.5-7.2a5.41,5.41,0,0,1,2-4.6c1.4-1.1,4.3-1.7,6.6-1.7,2.7,0,5.5.8,6.4,2.1a11.61,11.61,0,0,1,1.4,6.2,26.65,26.65,0,0,1-.4,4.8L23.6,35.4a10.55,10.55,0,0,1-1.4,4.9A4.2,4.2,0,0,1,18.6,42a3.68,3.68,0,0,1-3.5-1.7A24.39,24.39,0,0,1,13.9,35.3Z"/><circle cx="19" cy="54.9" r="7.1"/></svg>