<svg id="a576856a-7aa7-4dc1-8364-5e88b925f33a" data-name="SVGRoot" xmlns="http://www.w3.org/2000/svg" width="128" height="128" viewBox="0 0 128 128"><title>walking</title><path d="M77.1,27.6A12.3,12.3,0,1,0,64.9,15.3,12.27,12.27,0,0,0,77.1,27.6Zm24.1,30-5.9-3-2.5-7.5c-3.7-11.4-14.2-19.4-26-19.4-9.2,0-14.2,2.6-23.7,6.5A24.2,24.2,0,0,0,30.5,46l-1.7,3.5a8.25,8.25,0,0,0,3.6,11,8,8,0,0,0,10.8-3.7l1.7-3.5a8,8,0,0,1,4.2-3.9l6.8-2.8L52,62.1a16.68,16.68,0,0,0,3.8,15.1L71,93.9a17.49,17.49,0,0,1,3.8,7.1l4.7,18.8a8.14,8.14,0,1,0,15.8-3.9L89.6,93a17.49,17.49,0,0,0-3.8-7.1L74.2,73.2l4.4-17.6L80,59.8a16.18,16.18,0,0,0,8.1,9.5l5.9,3a8,8,0,0,0,10.8-3.7,8.37,8.37,0,0,0-3.6-11ZM43,93.7a15.45,15.45,0,0,1-3.6,5.5L26.6,112a8.21,8.21,0,0,0,0,11.6,8.09,8.09,0,0,0,11.5,0l15.1-15.2a15.45,15.45,0,0,0,3.6-5.5l8.4-17.7C51.1,69.8,55.4,74.5,53.1,71.4Z"/><path d="M70.4,26.1a5.93,5.93,0,0,1-.8,2.2c-.6,1.1-4.4,1.9-4.9,2.3,2.6.8,9.2,1.7,11.8,2.5a3.64,3.64,0,0,0,1-1.1,4.19,4.19,0,0,0,.4-1.6,5.87,5.87,0,0,1,.8-2C76.3,27.6,72.9,26.9,70.4,26.1Z"/></svg>