<svg id="bc5d90c0-f199-4bec-a1bc-72a0117c901b" data-name="SVGRoot" xmlns="http://www.w3.org/2000/svg" width="128" height="128" viewBox="0 0 128 128"><title>wheelsensor</title><g id="fa14f117-83d3-4a3d-bbd5-36add35f77b4" data-name="g1092-1-4"><path id="fdbeb8bb-a216-4d0f-ab19-4afa9ae9ed0b" data-name="path2-1-6-0" d="M76.13,100.84a3.28,3.28,0,0,0,0-4.88A3.7,3.7,0,0,0,71,96a10.21,10.21,0,0,1-13.93,0A3.7,3.7,0,0,0,52,96a3.34,3.34,0,0,0,0,4.88,17.59,17.59,0,0,0,24.17,0Z"/><path id="a08839f6-8827-4f6e-9154-3259c76f7cd6" data-name="path4-7-3" d="M86.77,106.3a3.28,3.28,0,0,0,0-4.88,3.7,3.7,0,0,0-5.12,0,25.83,25.83,0,0,1-35.2,0,3.72,3.72,0,0,0-5.13,0,3.34,3.34,0,0,0,0,4.88,33.23,33.23,0,0,0,45.45,0Z"/><path id="a8d2d8fb-d580-4c7d-a4dd-45170422fbe5" data-name="path6-70-1-7" d="M98.63,112.13a3.28,3.28,0,0,0,0-4.88,3.7,3.7,0,0,0-5.12,0,43.33,43.33,0,0,1-59,0,3.7,3.7,0,0,0-5.12,0,3.34,3.34,0,0,0,0,4.88,49.94,49.94,0,0,0,34.53,13.68A50.64,50.64,0,0,0,98.63,112.13Z"/></g><path id="b3a20add-160e-4550-b26d-11556a72906c" data-name="rect1094-3-2" d="M40.8,78.6H87.4l9.9,14.7H30.7Z" fill="#fff800" stroke="#b3b3b3" stroke-linecap="round" stroke-miterlimit="6.4" stroke-width="0.95"/><g id="f7bc5995-3c1a-4541-9998-53542b1ec83b" data-name="g1049-6-9"><g id="a66f5f61-e065-4dd7-bb97-58098348107a" data-name="g991-1-2"><path id="a79cedfb-7968-4d5d-aef5-1ed484e7a11f" data-name="path2-74-9-3-3" d="M64.06,2.07a37.56,37.56,0,0,0-22,68c14.95,11,34.78,6.73,43.63.21A37.52,37.52,0,0,0,64.06,2.07Zm0,41.41a3.82,3.82,0,1,1,3.82-3.82A3.87,3.87,0,0,1,64.06,43.48Zm4.35-12.14c-.53-.22-1-.48-1.54-.64V10.24a29.13,29.13,0,0,1,16,6.62Zm-7.16-.59a7.38,7.38,0,0,0-1.53.64L45.3,17a29.35,29.35,0,0,1,16-6.63Zm-5.51,4.56c-.21.53-.48,1-.64,1.54H34.8a29.13,29.13,0,0,1,6.63-16Zm-.58,7.1A8,8,0,0,0,55.79,44L41.37,58.37a29.34,29.34,0,0,1-6.62-16ZM72.33,44c.21-.53.48-1,.64-1.54H93.43a29.06,29.06,0,0,1-6.63,16ZM73,36.85a8.3,8.3,0,0,0-.63-1.54L86.8,20.89a29.31,29.31,0,0,1,6.63,16ZM83.84,16A30.68,30.68,0,0,0,66.93,9V7.8a32,32,0,0,1,17.75,7.42Zm-22.59-7a31.08,31.08,0,0,0-16.91,7l-.85-.85A32.28,32.28,0,0,1,61.25,7.64V8.91Zm-20.88,11a30.55,30.55,0,0,0-7,16.91H32.2A32.07,32.07,0,0,1,39.62,19Zm-7,22.52a31,31,0,0,0,7,16.92l-.84.84A32.19,32.19,0,0,1,32,42.41ZM87.71,59.33a30.6,30.6,0,0,0,7-16.92h1.17a32.07,32.07,0,0,1-7.42,17.76Zm7.05-22.48a31,31,0,0,0-7-16.91l.85-.85A32.28,32.28,0,0,1,96,36.85Z"/></g><g id="ba05345f-6de2-4322-93e7-df76387b38c0" data-name="g1018-3-3"><path id="b5fe427e-f65c-4ed2-8ab9-27a8105a6d23" data-name="path1008-0-4" d="M59.77,47.85l1.53.65-.16,20.39c-6.07-.8-11.45-2.71-15.92-6.72Z" fill="#fff"/><path id="b98ca803-d8ef-4509-a5b6-bdb8678c19a7" data-name="path1014-1-3" d="M43.41,64l.83-.82a31.41,31.41,0,0,0,16.85,7.15v1.2A31.35,31.35,0,0,1,43.41,64Z" fill="#fff"/></g><g id="f05bf4a8-a911-4676-aea8-90168f53440d" data-name="g1018-7-0-1"><path id="a2c69525-d92e-420b-a8d6-efd24cb2597b" data-name="path1008-7-5-7" d="M66.86,48.5l1.53-.64,14.44,14.4C78,66,72.88,68.53,66.89,68.91Z" fill="#fff"/><path id="bac01503-3601-478a-a68c-c0e6079a3736" data-name="path1014-4-8-4" d="M66.89,71.46V70.29a31.39,31.39,0,0,0,16.9-7l.85.85A32.14,32.14,0,0,1,66.89,71.46Z" fill="#fff"/></g></g></svg>